<svg xmlns="http://www.w3.org/2000/svg" viewBox="0 0 700 500"><g id="freepik--background-simple--inject-37"><path d="M601.81,346.69s27.37-140.34-47.19-220c-65.82-70.29-170-97.63-255-39.5-30.27,20.71-52.3,60.91-87.66,73.34-39.64,13.93-90.61,18.91-127.42,78.63S61,375.55,110,416.36s135,1,212.38-2S561.22,519.87,601.81,346.69Z" style="fill:#407BFF"></path><path d="M601.81,346.69s27.37-140.34-47.19-220c-65.82-70.29-170-97.63-255-39.5-30.27,20.71-52.3,60.91-87.66,73.34-39.64,13.93-90.61,18.91-127.42,78.63S61,375.55,110,416.36s135,1,212.38-2S561.22,519.87,601.81,346.69Z" style="fill:#fff;opacity:0.7000000000000001"></path></g><g id="freepik--Plants--inject-37"><path d="M149.38,95.51s0-8.53-11.94-20.47-19.62-18.77-19.62-18.77-6,19.62,5.11,31.56,26.45,23,26.45,23Z" style="fill:#407BFF"></path><path d="M132.05,148.79s0-8.53-12-20.48-19.62-18.76-19.62-18.76-6,19.62,5.12,31.56,26.45,23,26.45,23Z" style="fill:#407BFF"></path><path d="M148.63,110s.9-8.48,14-19.1,21.49-16.59,21.49-16.59S188,94.5,175.74,105.2,147,125.31,147,125.31Z" style="fill:#407BFF"></path><path d="M127.69,173s1.79-8.34,16-17.52,23.12-14.24,23.12-14.24,1.72,20.44-11.62,29.79-30.69,17-30.69,17Z" style="fill:#407BFF"></path><path d="M131.63,241.56s0-8.53,11.94-20.48,19.62-18.76,19.62-18.76,6,19.62-5.12,31.56-26.44,23-26.44,23Z" style="fill:#407BFF"></path><path d="M131.43,258.3s1.21-8.44-8.92-22S105.76,215,105.76,215s-8.7,18.58.58,32,22.9,26.56,22.9,26.56Z" style="fill:#407BFF"></path><path d="M119.65,307.92s0-8.53,11.94-20.47,19.62-18.77,19.62-18.77,6,19.62-5.11,31.57-26.45,23-26.45,23Z" style="fill:#407BFF"></path><path d="M127.63,352.92s-2.17-8.26,6.36-22.84S148.22,307,148.22,307s10.75,17.47,3,31.83-19.75,29-19.75,29Z" style="fill:#407BFF"></path><path d="M150.46,93.32a242.41,242.41,0,0,1-3.27,26.49C142.47,144.2,130.67,159.94,126,182s8.83,50.42,5.2,78.71-14.65,44-11.5,62.92,19.67,70,19.67,70" style="fill:none;stroke:#263238;stroke-linecap:round;stroke-linejoin:round;stroke-width:1.20076px"></path><line x1="148.51" y1="115.71" x2="161.38" y2="105.83" style="fill:none;stroke:#263238;stroke-linecap:round;stroke-linejoin:round;stroke-width:1.20076px"></line><line x1="149.11" y1="104.34" x2="143.72" y2="94.76" style="fill:none;stroke:#263238;stroke-linecap:round;stroke-linejoin:round;stroke-width:1.20076px"></line><path d="M126.66,181s10.78-8.08,21.85-16.16" style="fill:none;stroke:#263238;stroke-linecap:round;stroke-linejoin:round;stroke-width:1.20076px"></path><path d="M132.05,164.14s-9-17.6-19.16-29.27" style="fill:none;stroke:#263238;stroke-linecap:round;stroke-linejoin:round;stroke-width:1.20076px"></path><path d="M132.05,253.69a133.33,133.33,0,0,1,23-30.83" style="fill:none;stroke:#263238;stroke-linecap:round;stroke-linejoin:round;stroke-width:1.20076px"></path><path d="M130,265.67s-5.38-12.87-11.67-22.15S111.1,233,111.1,233" style="fill:none;stroke:#263238;stroke-linecap:round;stroke-linejoin:round;stroke-width:1.20076px"></path><path d="M119.65,323.6A143.34,143.34,0,0,1,129.36,304a124.8,124.8,0,0,1,12.57-16.46" style="fill:none;stroke:#263238;stroke-linecap:round;stroke-linejoin:round;stroke-width:1.20076px"></path><path d="M131.51,367.77s-1.26-10.22,3.23-18.9,9.58-20.05,11.68-24.54" style="fill:none;stroke:#263238;stroke-linecap:round;stroke-linejoin:round;stroke-width:1.20076px"></path><path d="M71.17,209.48s-.92-5.35,5.27-14.14,10.27-13.9,10.27-13.9,5.87,11.66.21,20.35A133.9,133.9,0,0,1,72.84,219.1Z" style="fill:#407BFF"></path><path d="M87.83,241s-.93-5.35,5.26-14.13S103.36,213,103.36,213s5.87,11.65.22,20.35a133.55,133.55,0,0,1-14.09,17.31Z" style="fill:#407BFF"></path><path d="M73.22,218.5s-1.49-5.22-10.88-10.45S47.06,200,47.06,200,46.83,213,55.7,218.41a133.33,133.33,0,0,0,20.2,9.49Z" style="fill:#407BFF"></path><path d="M93.18,255.69s-2-5-11.91-9.25-16-6.42-16-6.42,1.14,13,10.52,17.42a134.12,134.12,0,0,0,21.09,7.31Z" style="fill:#407BFF"></path><path d="M98.16,299.13s-.93-5.35-9.71-11.54S74.11,278,74.11,278s-1.62,12.95,6.63,19.24a133.8,133.8,0,0,0,19.09,11.57Z" style="fill:#407BFF"></path><path d="M100.1,309.61s-1.67-5.16,3.21-14.74,8.18-15.22,8.18-15.22,7.48,10.7,3.11,20.11a133,133,0,0,1-11.48,19.14Z" style="fill:#407BFF"></path><path d="M115.09,352.76s.62-5.39,9-12.08,13.77-10.44,13.77-10.44,2.35,12.84-5.53,19.59A134.13,134.13,0,0,1,114,362.47Z" style="fill:#407BFF"></path><path d="M112.88,339.45s-.93-5.35-9.72-11.54-14.34-9.64-14.34-9.64-1.61,13,6.64,19.24a134,134,0,0,0,19.08,11.57Z" style="fill:#407BFF"></path><path d="M112.76,368.53s.46-5.41-6.47-13.63S94.85,342,94.85,342,90,354.07,96.4,362.24a133.15,133.15,0,0,0,15.53,16Z" style="fill:#407BFF"></path><path d="M70.26,208.22a156.73,156.73,0,0,0,4.92,16.26c5.61,14.78,14.72,23.37,20.07,36.67s-.06,32.57,5.29,49.92,14,26,14,38.21-4.74,46.05-4.74,46.05" style="fill:none;stroke:#263238;stroke-linecap:round;stroke-linejoin:round;stroke-width:1.20076px"></path><line x1="73.91" y1="222.05" x2="64.77" y2="217.25" style="fill:none;stroke:#263238;stroke-linecap:round;stroke-linejoin:round;stroke-width:1.20076px"></line><line x1="72.3" y1="214.98" x2="74.64" y2="208.39" style="fill:none;stroke:#263238;stroke-linecap:round;stroke-linejoin:round;stroke-width:1.20076px"></line><path d="M94.7,260.59s-7.64-3.9-15.46-7.76" style="fill:none;stroke:#263238;stroke-linecap:round;stroke-linejoin:round;stroke-width:1.20076px"></path><path d="M89.49,250.63s3.72-12,8.84-20.44" style="fill:none;stroke:#263238;stroke-linecap:round;stroke-linejoin:round;stroke-width:1.20076px"></path><path d="M99.21,306.79A84.56,84.56,0,0,0,81.41,290" style="fill:none;stroke:#263238;stroke-linecap:round;stroke-linejoin:round;stroke-width:1.20076px"></path><path d="M101.83,314.07a96.06,96.06,0,0,1,4.91-15.16c2.94-6.5,3.37-7.35,3.37-7.35" style="fill:none;stroke:#263238;stroke-linecap:round;stroke-linejoin:round;stroke-width:1.20076px"></path><path d="M114.16,358.52s6.06-7.43,9.83-10.21a52.17,52.17,0,0,0,6.39-5.55" style="fill:none;stroke:#263238;stroke-linecap:round;stroke-linejoin:round;stroke-width:1.20076px"></path><path d="M114.58,349.28A91.72,91.72,0,0,0,106.36,338a79.8,79.8,0,0,0-9.67-9" style="fill:none;stroke:#263238;stroke-linecap:round;stroke-linejoin:round;stroke-width:1.20076px"></path><path d="M111.93,378.26s-.32-6.54-4.07-11.49-8.19-11.54-10-14.13" style="fill:none;stroke:#263238;stroke-linecap:round;stroke-linejoin:round;stroke-width:1.20076px"></path><path d="M147.06,476.54H97.22a3.93,3.93,0,0,1-3.93-3.93L80.93,390.06h82.42L151,472.61A3.93,3.93,0,0,1,147.06,476.54Z" style="fill:#263238;stroke:#263238;stroke-linecap:round;stroke-linejoin:round;stroke-width:1.20076px"></path></g><g id="freepik--Graphics--inject-37"><rect x="413.03" y="79.59" width="16.81" height="16.81" transform="translate(61.21 323.77) rotate(-45)" style="fill:none;stroke:#263238;stroke-linecap:round;stroke-linejoin:round;stroke-width:1.20076px"></rect><rect x="295.09" y="44.38" width="9.17" height="9.17" transform="translate(53.15 226.24) rotate(-45)" style="fill:none;stroke:#263238;stroke-linecap:round;stroke-linejoin:round;stroke-width:1.20076px"></rect><rect x="566.07" y="103.84" width="9.17" height="9.17" transform="translate(90.47 435.27) rotate(-45)" style="fill:none;stroke:#263238;stroke-linecap:round;stroke-linejoin:round;stroke-width:1.20076px"></rect><path d="M229.31,122.82a4.81,4.81,0,1,0-4.8,4.8A4.8,4.8,0,0,0,229.31,122.82Z" style="fill:none;stroke:#263238;stroke-linecap:round;stroke-linejoin:round;stroke-width:1.20076px"></path><path d="M602.75,383.38a4.81,4.81,0,1,0-4.81,4.8A4.8,4.8,0,0,0,602.75,383.38Z" style="fill:none;stroke:#263238;stroke-linecap:round;stroke-linejoin:round;stroke-width:1.20076px"></path><path d="M486.27,140.83a4.8,4.8,0,1,0-4.8,4.8A4.8,4.8,0,0,0,486.27,140.83Z" style="fill:none;stroke:#263238;stroke-linecap:round;stroke-linejoin:round;stroke-width:1.20076px"></path><path d="M110.44,176.85a4.81,4.81,0,1,0-4.81,4.8A4.81,4.81,0,0,0,110.44,176.85Z" style="fill:none;stroke:#263238;stroke-linecap:round;stroke-linejoin:round;stroke-width:1.20076px"></path></g><g id="freepik--Device--inject-37"><path d="M147.34,161H574.61a12.74,12.74,0,0,1,12.74,12.74V454.91a0,0,0,0,1,0,0H134.61a0,0,0,0,1,0,0V173.78A12.74,12.74,0,0,1,147.34,161Z" style="fill:#fff;stroke:#263238;stroke-linecap:round;stroke-linejoin:round;stroke-width:1.20076px"></path><rect x="206.44" y="440.76" width="311.15" height="15.33" style="fill:#263238;stroke:#263238;stroke-linecap:round;stroke-linejoin:round;stroke-width:1.20076px"></rect><rect x="206.44" y="448.15" width="311.15" height="7.95" style="fill:#fff;stroke:#263238;stroke-linecap:round;stroke-linejoin:round;stroke-width:1.20076px"></rect><path d="M98,465.18s5.11,6.25,20.44,11.36H605.59s11.36-2.84,16.47-10.79Z" style="fill:#263238;stroke:#263238;stroke-linecap:round;stroke-linejoin:round;stroke-width:1.20076px"></path><rect x="96.95" y="453.99" width="526.21" height="11.94" rx="3.86" style="fill:#fff;stroke:#263238;stroke-linecap:round;stroke-linejoin:round;stroke-width:1.20076px"></rect><path d="M364.85,169.93a4,4,0,1,0-4,4A4,4,0,0,0,364.85,169.93Z" style="fill:#263238"></path><path d="M138.87,243.74h0a1.13,1.13,0,0,1-1.13-1.13V209.68a1.14,1.14,0,0,1,1.13-1.14h0a1.14,1.14,0,0,1,1.14,1.14v32.93A1.13,1.13,0,0,1,138.87,243.74Z" style="fill:#263238;stroke:#fff;stroke-linejoin:round;stroke-width:0.830552px"></path><rect x="152.97" y="184" width="416" height="235.09" style="fill:#d1d1d1;stroke:#263238;stroke-linejoin:round;stroke-width:1.20076px"></rect><rect x="222.11" y="184" width="346.87" height="13.9" style="fill:#263238"></rect><circle cx="169.38" cy="238.34" r="9.94" transform="translate(-78.31 82.96) rotate(-22.5)" style="fill:none;stroke:#263238;stroke-linejoin:round;stroke-width:1.20076px"></circle><circle cx="169.38" cy="266.88" r="9.94" style="fill:none;stroke:#263238;stroke-linejoin:round;stroke-width:1.20076px"></circle><circle cx="169.38" cy="295.42" r="9.94" transform="translate(-100.16 87.31) rotate(-22.5)" style="fill:none;stroke:#263238;stroke-linejoin:round;stroke-width:1.20076px"></circle><circle cx="169.38" cy="323.97" r="9.94" style="fill:none;stroke:#263238;stroke-linejoin:round;stroke-width:1.20076px"></circle><circle cx="169.38" cy="352.51" r="9.94" style="fill:none;stroke:#263238;stroke-linejoin:round;stroke-width:1.20076px"></circle><circle cx="169.38" cy="381.06" r="9.94" transform="translate(-233.89 487.21) rotate(-80.78)" style="fill:none;stroke:#263238;stroke-linejoin:round;stroke-width:1.20076px"></circle><rect x="201.77" y="205.94" width="341.88" height="207.18" style="fill:none;stroke:#263238;stroke-linejoin:round;stroke-width:1.20076px"></rect><line x1="202.31" y1="329.73" x2="544.06" y2="329.73" style="fill:none;stroke:#263238;stroke-linejoin:round;stroke-width:1.20076px"></line><line x1="399.39" y1="342.28" x2="516.01" y2="342.28" style="fill:none;stroke:#263238;stroke-linejoin:round;stroke-width:1.20076px"></line><line x1="399.39" y1="352.61" x2="516.01" y2="352.61" style="fill:none;stroke:#263238;stroke-linejoin:round;stroke-width:1.20076px"></line><line x1="399.39" y1="362.95" x2="516.01" y2="362.95" style="fill:none;stroke:#263238;stroke-linejoin:round;stroke-width:1.20076px"></line><line x1="399.39" y1="373.28" x2="516.01" y2="373.28" style="fill:none;stroke:#263238;stroke-linejoin:round;stroke-width:1.20076px"></line><line x1="399.39" y1="383.61" x2="516.01" y2="383.61" style="fill:none;stroke:#263238;stroke-linejoin:round;stroke-width:1.20076px"></line><line x1="399.39" y1="393.95" x2="516.01" y2="393.95" style="fill:none;stroke:#263238;stroke-linejoin:round;stroke-width:1.20076px"></line><line x1="367.3" y1="211.08" x2="367.3" y2="212.28" style="fill:none;stroke:#263238;stroke-linejoin:round;stroke-width:1.20076px"></line><line x1="367.3" y1="214.65" x2="367.3" y2="322.75" style="fill:none;stroke:#263238;stroke-linejoin:round;stroke-width:1.20076px;stroke-dasharray:2.3758199214935303,2.3758199214935303"></line><line x1="367.3" y1="323.94" x2="367.3" y2="325.14" style="fill:none;stroke:#263238;stroke-linejoin:round;stroke-width:1.20076px"></line><path d="M372.43,328.46a5.13,5.13,0,1,0-5.13,5.13A5.12,5.12,0,0,0,372.43,328.46Z" style="fill:#fff;stroke:#263238;stroke-linejoin:round;stroke-width:1.20076px"></path><line x1="367.23" y1="325.14" x2="367.23" y2="332.02" style="fill:none;stroke:#263238;stroke-linejoin:round;stroke-width:0.60038px"></line><line x1="370.67" y1="328.58" x2="363.79" y2="328.58" style="fill:none;stroke:#263238;stroke-linejoin:round;stroke-width:0.60038px"></line><path d="M322.68,272.65H241.86a6.08,6.08,0,0,1-6.09-6.09h0a6.08,6.08,0,0,1,6.09-6.09h80.82a6.09,6.09,0,0,1,6.09,6.09h0A6.09,6.09,0,0,1,322.68,272.65Z" style="fill:none;stroke:#263238;stroke-linejoin:round;stroke-width:1.20076px"></path><rect x="208.88" y="340.8" width="80.85" height="57.75" style="fill:#407BFF;stroke:#263238;stroke-linejoin:round;stroke-width:1.20076px"></rect><line x1="208.88" y1="398.55" x2="289.73" y2="340.8" style="fill:none;stroke:#263238;stroke-linejoin:round;stroke-width:1.20076px"></line><line x1="208.88" y1="340.8" x2="289.73" y2="398.55" style="fill:none;stroke:#263238;stroke-linejoin:round;stroke-width:1.20076px"></line><rect x="301.14" y="340.8" width="80.85" height="57.75" style="fill:#407BFF;stroke:#263238;stroke-linejoin:round;stroke-width:1.20076px"></rect><line x1="301.14" y1="398.55" x2="382" y2="340.8" style="fill:none;stroke:#263238;stroke-linejoin:round;stroke-width:1.20076px"></line><line x1="301.14" y1="340.8" x2="382" y2="398.55" style="fill:none;stroke:#263238;stroke-linejoin:round;stroke-width:1.20076px"></line><line x1="179.32" y1="295.42" x2="201.18" y2="295.42" style="fill:none;stroke:#263238;stroke-linejoin:round;stroke-width:1.20076px"></line></g><g id="freepik--Character--inject-37"><rect x="374.96" y="213" width="148.17" height="105.84" style="fill:#407BFF;stroke:#263238;stroke-linejoin:round;stroke-width:1.20076px"></rect><line x1="374.96" y1="318.84" x2="523.13" y2="213" style="fill:none;stroke:#263238;stroke-linejoin:round;stroke-width:1.20076px"></line><line x1="374.96" y1="213" x2="523.13" y2="318.84" style="fill:none;stroke:#263238;stroke-linejoin:round;stroke-width:1.20076px"></line><path d="M507.38,267.62a59.71,59.71,0,0,1,3.54,5.61,22.68,22.68,0,0,1,2,4.86s.63-.55,4-3.56,3.67-5.85,3.67-5.85L517.4,264S509.39,263.39,507.38,267.62Z" style="fill:#fff;stroke:#263238;stroke-linecap:round;stroke-linejoin:round;stroke-width:1.20076px"></path><path d="M504.14,250s-1.09,3.16-2.08,3.29-3.92-1.24-3.6,1.22a6.58,6.58,0,0,0,2.28,4s-.68,8.11-.27,9.31,1,2.12,4,1.73l5.42-.71a17.57,17.57,0,0,0,2,.23c1.26.08,1.24.22,3.41-2.32s3.51-.35,2.95-4.54-1.15-6.87-3.48-9.32S504.14,250,504.14,250Z" style="fill:#fff;stroke:#263238;stroke-linecap:round;stroke-linejoin:round;stroke-width:1.20076px"></path><path d="M503,255c-.27.92-.29,1.72,0,1.79s.66-.61.93-1.53.29-1.73,0-1.8S503.26,254.09,503,255Z" style="fill:#263238"></path><path d="M529.85,236.19l-17-12.85s-2.68-1.2-2.68-3.59a35.78,35.78,0,0,1,0-5.67c.29-2.39,0-3.59,1.19-3.59s1.49,2.69,1.49,2.69l.9-3s2.09-.59,2.39.9,2.69,2.39,2.09,4.48a22.8,22.8,0,0,1-2.69,5.08s15.84,6.87,18.82,7.77,8.47,3.43,7.87,6.42-3.54,11.94-3.54,11.94Z" style="fill:#fff;stroke:#263238;stroke-linecap:round;stroke-linejoin:round;stroke-width:1.20076px"></path><path d="M513.73,276.83s-4.16,2.86-9,6.44c-6,4.44-6.1,14.74-6.53,15.78-.7,1.73,18.94,23.1,21.75,26.7s3.32,9.4,3.32,9.4l26.61-5.76s-13.32-46.5-14-49.91-1.82-7.85-1.82-7.85,1.84-10.51,4.22-19,3.35-13.92,3.17-15.3-7.53-2.17-10.57-2.23-2.76.36-2.76.36-6.61,15.35-7,16.1S513.73,276.83,513.73,276.83Z" style="fill:#fff;stroke:#263238;stroke-linecap:round;stroke-linejoin:round;stroke-width:1.20076px"></path><polygon points="523.27 335.15 521.94 348.46 505.53 391.48 501.98 441.59 508.63 442.04 521.5 393.25 538.79 361.32 546.77 390.59 571.41 439.14 577.71 435.42 562.3 385.71 553.43 334.71 549.88 329.39 523.27 335.15" style="fill:#263238;stroke:#263238;stroke-linecap:round;stroke-linejoin:round;stroke-width:1.20076px"></polygon><path d="M518.64,268a49.72,49.72,0,0,1-3.19,4.16c-1.43,1.59-3.46,2.09-4,3.33a60.34,60.34,0,0,1-3.26,5.24s6.59-1.24,10-4,4.51-8.3,4.51-8.3S520.15,267.1,518.64,268Z" style="fill:#fff;stroke:#263238;stroke-linecap:round;stroke-linejoin:round;stroke-width:1.20076px"></path><path d="M484.22,322.22s-26.05-8.24-28.57-9.43a8.45,8.45,0,0,0-7.27.08c-2.34,1-4.68.23-4.74,1.27s1.45,1.64,2.31,1.28a14,14,0,0,1,3.34-.42l-10,4.27s-.21,1.85,1.12,2,3.26,1.13,5.23,1,10.5-5.49,10.5-5.49a116.38,116.38,0,0,1,13.24,7.59c6.45,4.36,16.46,9.05,19.78,8.49s7.23-5.95,6.74-8.21C493.78,315.05,484.22,322.22,484.22,322.22Z" style="fill:#fff;stroke:#263238;stroke-linecap:round;stroke-linejoin:round;stroke-width:1.20076px"></path><path d="M516.94,301.16s-7.77,10-12,15.26-8.48,14.44-12,14.2-7.87-7.28-7.65-9.18,5-6,7.8-13.4c2.06-5.49,5.68-14.8,7.4-19.2.63-1.61.76-2.85,2.13-3.89l2.11-1.68" style="fill:#fff;stroke:#263238;stroke-linecap:round;stroke-linejoin:round;stroke-width:1.20076px"></path><path d="M485.29,321.44c.12-1.08,1.77-2.92,3.67-5.67.73,1.29,2.32,4.47,4.45,6a30.48,30.48,0,0,0,6.29,3.1c-3.34,4.09-4.83,5.88-6.76,5.75C489.41,330.39,485.07,323.34,485.29,321.44Z" style="fill:#fff;stroke:#263238;stroke-linecap:round;stroke-linejoin:round;stroke-width:1.20076px"></path><path d="M525.91,240.6c1.23-2.85,2.21-5.14,2.21-5.14s-.29-.43,2.76-.36,11.52,1,11.7,2.35a13.3,13.3,0,0,1-1.87,7.84C538.35,243.36,531.11,240,525.91,240.6Z" style="fill:#fff;stroke:#263238;stroke-linecap:round;stroke-linejoin:round;stroke-width:1.20076px"></path><path d="M511.26,308.89a38.9,38.9,0,0,1,11-5.31" style="fill:none;stroke:#263238;stroke-linecap:round;stroke-linejoin:round;stroke-width:1.20076px"></path><path d="M510.08,257s-10.82-7.85-7.48-14.81,8.3-9.37,12.85-7.21,3.11,4.6,3.11,4.6,5-.15,6.75,3.63a6.36,6.36,0,0,1-.63,6.6,13.77,13.77,0,0,1,2.58,8.19c-.12,4.78-8.49,11.65-10.19,12.13s-3-2.11-3-2.11,2.43-4.34,1.35-4.95-3.78,1.76-3.78,1.76-1.35,1.18-1.74-1.78A21.62,21.62,0,0,1,510.08,257Z" style="fill:#263238;stroke:#263238;stroke-linecap:round;stroke-linejoin:round;stroke-width:1.20076px"></path><path d="M502,441.59s-5,4.88-9.87,6.21a32.58,32.58,0,0,0-7.16,2.66l-1.11,1.93a1.08,1.08,0,0,0,.94,1.62h24.3a26.94,26.94,0,0,0,.44-5.76,18.18,18.18,0,0,0-.89-6.21Z" style="fill:#fff;stroke:#263238;stroke-linecap:round;stroke-linejoin:round;stroke-width:1.20076px"></path><path d="M571.41,439.14l-.36,3.71s-1.53,3.83-3.84,5.37-5.11,1.54-5.11,3.07v2.82h9.47s2,.25,4.86-2.31,3.33-4.86,5.37-6.14,2.05-3.07,1-5.89-5.12-4.35-5.12-4.35Z" style="fill:#fff;stroke:#263238;stroke-linecap:round;stroke-linejoin:round;stroke-width:1.20076px"></path></g></svg>