<?xml version="1.0" standalone="no"?>
<!DOCTYPE svg PUBLIC "-//W3C//DTD SVG 20010904//EN"
 "http://www.w3.org/TR/2001/REC-SVG-20010904/DTD/svg10.dtd">
<svg version="1.0" xmlns="http://www.w3.org/2000/svg"
 width="921.000000pt" height="837.000000pt" viewBox="0 0 921.000000 837.000000"
 preserveAspectRatio="xMidYMid meet">

<g transform="translate(0.000000,837.000000) scale(0.100000,-0.100000)"
fill="#003070" stroke="none">
<path d="M4818 7326 c-26 -7 -79 -50 -165 -130 -71 -66 -218 -203 -328 -305
-189 -176 -274 -256 -475 -446 -47 -44 -173 -161 -280 -260 -107 -99 -238
-220 -290 -270 -52 -49 -160 -151 -240 -225 -80 -74 -183 -171 -230 -215 -47
-44 -177 -165 -290 -270 -112 -104 -279 -260 -370 -345 -91 -85 -257 -240
-370 -345 -112 -104 -247 -231 -300 -280 -52 -50 -187 -176 -300 -280 -471
-437 -445 -408 -445 -495 0 -68 27 -116 83 -148 64 -36 126 -24 187 35 38 37
705 660 1005 938 124 115 266 247 315 294 50 48 151 143 225 212 74 69 205
190 290 270 85 79 200 187 255 239 55 52 125 118 155 145 30 28 129 120 220
205 91 85 190 177 220 205 59 53 237 220 515 480 362 339 581 544 618 575 l37
32 53 -48 c147 -135 451 -418 607 -564 97 -91 266 -248 375 -350 110 -102 272
-252 360 -335 88 -82 250 -233 360 -335 110 -102 240 -223 290 -270 49 -47
153 -143 230 -215 77 -71 178 -166 225 -210 47 -45 117 -110 155 -145 63 -57
285 -264 875 -816 245 -229 273 -252 315 -260 95 -18 184 61 185 164 0 75 -12
88 -420 467 -113 105 -243 226 -290 270 -47 44 -146 136 -220 205 -74 69 -173
161 -220 205 -47 44 -109 102 -138 128 l-52 48 0 502 c0 458 -2 505 -18 537
-53 107 -203 107 -266 0 -20 -33 -21 -53 -24 -393 l-3 -358 -163 153 c-191
180 -387 363 -506 473 -47 43 -116 108 -155 144 -206 194 -225 210 -240 205
-10 -4 -13 -2 -10 8 3 8 -19 37 -57 73 -35 32 -99 93 -143 134 -44 42 -107
101 -140 131 -33 31 -125 116 -205 190 -80 74 -264 245 -409 380 -144 135
-272 250 -284 256 -38 19 -71 22 -109 10z m-1228 -1196 c0 -5 -4 -10 -10 -10
-5 0 -10 5 -10 10 0 6 5 10 10 10 6 0 10 -4 10 -10z m-10 -234 c0 -28 -24 -41
-40 -21 -16 20 -5 45 20 45 14 0 20 -7 20 -24z m2660 -106 c0 -23 -35 -28 -43
-6 -7 18 1 26 25 26 11 0 18 -7 18 -20z m248 -61 c-2 -6 -8 -10 -13 -10 -5 0
-11 4 -13 10 -2 6 4 11 13 11 9 0 15 -5 13 -11z m62 -283 c0 -21 -21 -31 -30
-15 -5 7 -6 17 -4 21 9 14 34 9 34 -6z m535 -366 c0 -8 -8 -16 -17 -18 -13 -2
-18 3 -18 18 0 15 5 20 18 18 9 -2 17 -10 17 -18z m-5035 -620 c0 -5 -2 -10
-4 -10 -3 0 -8 5 -11 10 -3 6 -1 10 4 10 6 0 11 -4 11 -10z"/>
<path d="M7300 7264 c-223 -21 -417 -71 -602 -156 -105 -49 -321 -174 -344
-199 -13 -15 -19 -36 -19 -71 0 -43 4 -53 33 -79 50 -45 76 -39 229 47 292
165 478 222 753 231 318 11 542 -48 851 -227 161 -93 184 -97 235 -46 38 38
45 86 19 135 -26 52 -369 235 -540 289 -203 63 -435 92 -615 76z"/>
<path d="M7335 6813 c-219 -13 -417 -76 -641 -203 -143 -80 -149 -87 -149
-156 0 -49 4 -59 28 -80 52 -45 66 -42 205 33 259 142 386 178 632 178 240 0
373 -37 597 -165 143 -82 177 -88 224 -41 24 24 29 38 29 76 0 25 -5 55 -10
65 -19 36 -273 175 -408 224 -135 48 -357 79 -507 69z"/>
<path d="M7320 6368 c-77 -5 -145 -16 -205 -33 -159 -46 -401 -172 -423 -220
-36 -78 11 -165 89 -165 12 0 76 29 143 65 196 106 336 141 527 132 173 -8
278 -40 447 -139 106 -63 146 -67 192 -23 26 25 30 36 30 80 0 63 -17 81 -145
154 -221 125 -397 165 -655 149z"/>
<path d="M4002 5493 c-34 -17 -82 -70 -82 -92 0 -7 7 -19 15 -27 17 -18 10
-41 -16 -49 -18 -6 -19 -18 -19 -160 0 -113 3 -155 13 -159 10 -5 10 -7 0 -12
-16 -7 -18 -172 -2 -227 13 -47 63 -106 106 -123 40 -17 547 -20 605 -4 46 13
104 76 118 131 8 28 10 137 8 329 l-3 287 -28 41 c-52 79 -66 82 -394 82 -246
0 -293 -3 -321 -17z m74 -382 c-10 -16 -36 -13 -43 5 -8 22 18 37 36 20 7 -8
10 -19 7 -25z m-107 -67 c-8 -10 -16 -11 -30 -3 -22 11 -24 20 -7 37 17 17 53
-15 37 -34z m364 -140 c9 -10 -4 -34 -19 -34 -8 0 -14 6 -14 13 0 22 19 35 33
21z"/>
<path d="M4965 5487 c-29 -16 -48 -37 -67 -76 l-28 -55 0 -275 c0 -159 4 -292
10 -313 14 -50 55 -97 105 -119 36 -17 70 -19 312 -19 168 0 282 4 300 11 38
14 92 67 109 108 11 26 14 95 14 323 0 309 -3 333 -53 386 -47 51 -56 52 -369
52 -284 0 -294 -1 -333 -23z m55 -287 c0 -5 -2 -10 -4 -10 -3 0 -8 5 -11 10
-3 6 -1 10 4 10 6 0 11 -4 11 -10z m-115 -279 c3 -5 1 -12 -5 -16 -5 -3 -10 1
-10 9 0 18 6 21 15 7z m63 -205 c6 -27 -14 -42 -32 -27 -12 10 -13 18 -5 33
12 22 32 19 37 -6z"/>
<path d="M4031 4505 c-53 -17 -88 -48 -112 -100 -17 -36 -19 -69 -19 -330 0
-282 1 -292 23 -335 12 -24 39 -58 60 -74 l39 -31 273 -3 c294 -3 333 1 385
44 65 55 65 57 65 401 l0 311 -30 43 c-57 80 -73 84 -375 86 -204 2 -275 -1
-309 -12z m623 -401 c7 -19 -10 -44 -31 -44 -19 0 -28 27 -13 45 16 20 36 19
44 -1z m-633 -24 c39 -21 13 -75 -33 -68 -30 4 -38 46 -12 65 21 16 20 16 45
3z m329 -80 c0 -11 -4 -20 -9 -20 -14 0 -23 18 -16 30 10 17 25 11 25 -10z
m-40 -70 c0 -5 -4 -10 -10 -10 -5 0 -10 5 -10 10 0 6 5 10 10 10 6 0 10 -4 10
-10z m280 -10 c0 -5 -4 -10 -10 -10 -5 0 -10 5 -10 10 0 6 5 10 10 10 6 0 10
-4 10 -10z m-616 -22 c8 -14 7 -22 -7 -35 -16 -16 -18 -16 -39 4 -18 19 -19
24 -8 38 16 19 39 16 54 -7z m746 -112 c0 -3 -4 -8 -10 -11 -5 -3 -10 -1 -10
4 0 6 5 11 10 11 6 0 10 -2 10 -4z"/>
<path d="M5016 4508 c-54 -12 -100 -49 -124 -100 -19 -40 -21 -63 -21 -333 -1
-282 -1 -292 21 -335 13 -24 40 -58 61 -74 l39 -31 301 0 c300 0 302 0 340 24
23 14 47 41 62 72 25 48 25 50 25 339 0 316 -3 336 -58 393 -47 50 -100 58
-367 56 -132 -1 -258 -6 -279 -11z m640 -219 c9 -15 -11 -33 -30 -26 -9 4 -13
13 -10 22 7 17 30 20 40 4z m-356 -219 c0 -5 -4 -10 -9 -10 -6 0 -13 5 -16 10
-3 6 1 10 9 10 9 0 16 -4 16 -10z"/>
<path d="M2006 3238 l-33 -33 -6 -165 c-3 -91 -3 -297 1 -458 7 -293 7 -294
31 -313 32 -26 77 -24 106 6 14 13 26 32 26 42 1 10 2 23 4 28 1 6 3 142 3
304 l2 294 56 -94 c31 -52 67 -105 80 -120 13 -14 24 -31 24 -38 0 -22 218
-376 251 -407 25 -24 39 -29 81 -29 40 0 53 4 69 24 23 28 25 68 3 92 -18 20
-11 41 11 33 13 -5 15 48 12 406 l-2 412 -28 24 c-36 30 -68 30 -104 0 l-28
-24 -5 -325 -5 -326 -101 167 c-339 559 -320 532 -381 532 -26 0 -43 -8 -67
-32z m456 -653 c0 -5 -5 -11 -11 -13 -6 -2 -11 4 -11 13 0 9 5 15 11 13 6 -2
11 -8 11 -13z m238 -50 c0 -8 -6 -15 -14 -15 -17 0 -28 14 -19 24 12 12 33 6
33 -9z"/>
<path d="M3280 3263 c-47 -8 -125 -36 -166 -60 -60 -34 -136 -117 -127 -139 4
-11 3 -15 -5 -10 -30 18 -82 -167 -82 -294 0 -100 28 -220 67 -291 35 -64 120
-144 185 -174 108 -49 263 -56 390 -19 71 21 159 69 194 105 l29 30 0 161 0
160 -28 24 c-27 23 -34 24 -180 24 -178 0 -197 -7 -197 -69 0 -57 17 -65 139
-71 l106 -5 3 -77 c3 -73 2 -77 -25 -95 -119 -83 -310 -81 -396 2 -38 37 -87
122 -87 151 0 9 -9 18 -20 21 -23 6 -26 21 -5 29 17 7 9 65 -12 77 -18 11 -17
27 2 27 8 0 15 3 15 6 0 3 5 38 11 77 25 163 112 253 255 265 93 7 156 -26
209 -109 44 -68 54 -75 107 -78 65 -3 96 66 64 143 -19 45 -80 112 -130 141
-74 43 -216 65 -316 48z m404 -869 c8 -21 -1 -34 -24 -34 -22 0 -34 15 -26 35
7 20 42 19 50 -1z"/>
<path d="M3989 3241 l-29 -29 0 -452 0 -452 29 -29 c48 -48 111 -36 137 26 20
49 20 861 0 910 -26 62 -89 74 -137 26z m51 -126 c0 -8 -4 -15 -10 -15 -5 0
-10 7 -10 15 0 8 5 15 10 15 6 0 10 -7 10 -15z"/>
<path d="M4410 3255 c-55 -29 -55 -31 -55 -511 l0 -442 24 -26 c24 -26 61 -33
95 -20 37 14 41 42 46 369 l5 320 196 -325 c209 -346 228 -370 298 -370 40 1
62 14 79 47 9 16 12 149 12 473 l0 451 -25 24 c-36 37 -94 33 -118 -9 -8 -15
-13 -116 -17 -346 l-5 -325 -21 35 c-12 19 -101 166 -199 325 -97 160 -190
302 -206 318 -32 30 -69 34 -109 12z m540 -835 c0 -5 -4 -10 -10 -10 -5 0 -10
5 -10 10 0 6 5 10 10 10 6 0 10 -4 10 -10z"/>
<path d="M8190 3264 c-72 -14 -128 -40 -172 -81 -86 -81 -107 -199 -54 -307
44 -90 102 -122 355 -196 54 -16 84 -31 109 -56 33 -33 34 -37 30 -91 -4 -49
-10 -61 -41 -89 -59 -54 -149 -69 -222 -35 -50 22 -61 35 -110 129 -42 81 -60
93 -120 78 -49 -12 -57 -113 -16 -195 110 -214 507 -233 643 -29 77 114 61
293 -33 372 -45 39 -119 70 -244 105 -56 16 -121 39 -144 50 -126 65 -61 211
94 211 82 0 130 -31 171 -111 31 -62 49 -79 85 -79 72 0 101 88 58 177 -43 90
-145 144 -278 149 -47 1 -97 0 -111 -2z"/>
<path d="M1143 3226 l-28 -24 -3 -414 c-2 -227 0 -428 3 -446 3 -18 15 -42 26
-53 18 -18 35 -19 324 -19 292 0 306 1 325 20 30 30 27 83 -6 109 -25 20 -39
21 -260 21 l-234 0 0 145 0 145 213 0 c201 0 215 1 235 20 29 27 29 80 1 106
-22 20 -7 19 -406 24 l-43 0 0 119 0 120 235 3 c201 3 237 5 251 19 22 23 22
83 -1 109 -17 19 -29 20 -311 20 l-293 0 -28 -24z"/>
<path d="M5353 3226 l-28 -24 0 -442 0 -442 28 -24 28 -24 303 0 c285 0 304 1
320 19 28 30 24 80 -8 108 -27 23 -30 23 -262 23 l-234 0 0 145 0 145 215 0
c202 0 216 1 235 20 25 25 26 71 3 99 -17 20 -28 21 -233 23 l-215 3 -3 123
-3 122 231 0 231 0 24 25 c14 13 25 34 25 45 0 24 -18 61 -34 72 -6 4 -142 8
-303 8 l-292 0 -28 -24z m108 -119 c-1 -12 -15 -9 -19 4 -3 6 1 10 8 8 6 -3
11 -8 11 -12z m-31 -777 c0 -5 -4 -10 -10 -10 -5 0 -10 5 -10 10 0 6 5 10 10
10 6 0 10 -4 10 -10z"/>
<path d="M6223 3238 c-42 -20 -44 -42 -41 -497 l3 -433 24 -19 c22 -18 43 -19
326 -19 l304 0 20 26 c26 33 27 65 2 95 -19 24 -21 24 -260 27 l-241 3 0 145
0 144 209 0 c188 0 211 2 232 18 28 23 30 73 4 102 -17 19 -30 20 -232 20
l-213 0 0 125 0 125 224 0 c211 0 225 1 250 21 33 26 36 79 6 109 -19 19 -33
20 -307 19 -180 0 -296 -4 -310 -11z m345 -891 c2 -12 -3 -17 -17 -17 -12 0
-21 6 -21 13 0 31 32 34 38 4z m232 -22 c10 -12 10 -18 0 -30 -19 -23 -40 -18
-40 8 0 38 18 48 40 22z"/>
<path d="M7060 3221 l-29 -29 -1 -442 0 -441 29 -30 c37 -36 79 -38 118 -5
l28 24 3 196 3 196 60 0 c106 0 143 -35 258 -241 41 -74 88 -149 104 -166 41
-44 87 -45 129 -3 25 25 29 35 23 63 -19 93 -155 311 -216 346 -16 9 -29 18
-29 21 0 3 21 12 46 19 62 18 124 67 154 121 21 38 25 58 25 130 0 99 -26 163
-85 212 -61 50 -109 58 -363 58 l-229 0 -28 -29z m463 -136 c14 -9 34 -28 43
-43 23 -35 23 -111 1 -146 -32 -49 -70 -60 -219 -64 l-138 -4 0 142 0 143 144
-5 c111 -5 149 -10 169 -23z m-68 -395 c0 -8 -8 -16 -17 -18 -13 -2 -18 3 -18
18 0 15 5 20 18 18 9 -2 17 -10 17 -18z m-360 -245 c0 -28 -29 -25 -33 3 -3
19 0 23 15 20 10 -2 18 -12 18 -23z"/>
<path d="M4255 2030 c-20 -23 -156 -452 -162 -516 -5 -44 12 -68 44 -62 15 3
30 37 59 136 2 8 31 12 97 12 l94 0 24 -72 c19 -58 28 -74 46 -76 14 -2 27 5
37 20 17 26 14 46 -24 158 -10 30 -37 116 -60 190 -23 74 -46 148 -51 164 -20
64 -69 85 -104 46z m40 -114 c13 -31 51 -161 62 -213 5 -22 3 -23 -61 -23 -78
0 -76 -5 -41 120 29 104 30 110 10 110 -8 0 -15 9 -15 20 0 32 30 23 45 -14z"/>
<path d="M4810 2024 c-6 -14 -10 -64 -10 -112 l0 -86 -29 28 c-62 59 -150 37
-195 -49 -29 -57 -29 -200 1 -267 41 -90 136 -115 194 -50 l26 29 9 -31 c11
-36 42 -46 61 -20 16 23 19 534 3 565 -15 28 -49 24 -60 -7z m-52 -236 c46
-50 55 -134 22 -205 -28 -64 -95 -72 -124 -15 -36 70 -31 163 10 212 31 36 63
38 92 8z"/>
<path d="M5546 2034 c-9 -8 -16 -26 -16 -39 0 -23 23 -55 40 -55 17 0 40 32
40 55 0 23 -23 55 -40 55 -5 0 -16 -7 -24 -16z"/>
<path d="M6114 2040 c-38 -15 -36 -79 3 -94 24 -10 52 25 46 58 -7 33 -23 45
-49 36z"/>
<path d="M7690 2030 c-25 -25 -25 -41 -2 -71 22 -27 47 -21 64 15 9 20 8 30
-6 51 -20 30 -30 31 -56 5z"/>
<path d="M1166 2019 c-14 -20 -16 -59 -16 -269 0 -315 -12 -293 159 -288 146
4 171 13 202 81 35 78 16 173 -42 206 l-28 16 25 26 c53 55 50 157 -5 213 -31
31 -32 31 -155 34 -120 3 -124 3 -140 -19z m203 -70 c55 -19 69 -82 26 -124
-21 -22 -33 -25 -90 -25 l-65 0 0 73 c0 41 3 77 7 80 10 11 87 8 122 -4z m25
-240 c50 -23 58 -112 13 -144 -14 -10 -46 -15 -94 -15 l-73 0 0 85 0 85 65 0
c35 0 75 -5 89 -11z"/>
<path d="M2339 2016 c-10 -20 -9 -30 5 -51 30 -45 70 -22 64 37 -2 28 -7 34
-30 36 -22 3 -30 -2 -39 -22z"/>
<path d="M7480 2020 c-15 -15 -20 -33 -20 -79 0 -50 -3 -59 -20 -64 -26 -7
-36 -33 -20 -52 11 -13 14 -13 26 2 20 26 35 -1 22 -39 -6 -15 -8 -84 -7 -151
4 -136 17 -171 65 -183 35 -9 94 7 108 28 17 28 -4 54 -43 50 -42 -5 -51 22
-51 157 l0 107 33 9 c56 17 48 74 -10 75 -22 0 -23 4 -23 70 0 59 -3 71 -20
80 -15 8 -24 6 -40 -10z"/>
<path d="M6627 2023 c-4 -3 -7 -37 -7 -74 0 -63 -1 -67 -25 -73 -18 -5 -25
-13 -25 -31 0 -18 8 -28 25 -35 l25 -10 0 -149 c0 -127 3 -152 18 -170 21 -26
77 -37 115 -22 55 21 46 75 -14 75 l-34 1 -3 137 -3 137 28 3 c22 2 29 9 31
31 3 23 -1 28 -27 33 -29 6 -31 9 -31 55 0 67 -14 99 -43 99 -13 0 -27 -3 -30
-7z m3 -194 c0 -5 -7 -9 -15 -9 -15 0 -20 12 -9 23 8 8 24 -1 24 -14z"/>
<path d="M1620 1880 c-24 -15 -28 -297 -5 -357 29 -76 108 -96 168 -43 34 29
54 39 43 21 -3 -5 3 -20 13 -32 16 -20 23 -22 38 -13 16 10 18 30 21 209 2
137 -1 202 -9 211 -14 17 -45 18 -56 2 -4 -7 -10 -78 -13 -156 -5 -142 -5
-144 -33 -168 -35 -30 -61 -31 -81 -2 -13 18 -16 51 -16 153 0 132 -10 177
-40 182 -8 2 -22 -1 -30 -7z"/>
<path d="M2044 1876 c-46 -20 -64 -52 -64 -111 0 -64 26 -91 119 -129 36 -15
68 -32 73 -39 23 -37 -6 -77 -57 -77 -33 0 -58 21 -91 76 -19 31 -49 5 -48
-40 4 -119 211 -147 266 -36 23 46 23 87 -2 128 -20 32 -32 39 -133 76 -34 13
-49 24 -53 42 -8 33 12 54 52 54 26 0 39 -7 60 -35 33 -44 67 -45 72 -2 9 79
-103 132 -194 93z m176 -236 c0 -5 -4 -10 -10 -10 -5 0 -10 5 -10 10 0 6 5 10
10 10 6 0 10 -4 10 -10z"/>
<path d="M2349 1874 c-11 -13 -15 -61 -17 -199 -3 -169 -2 -183 17 -206 16
-20 23 -22 38 -13 16 10 18 30 21 193 2 122 -1 181 -8 181 -6 0 -9 12 -8 27 4
33 -22 43 -43 17z"/>
<path d="M2516 1875 c-14 -14 -16 -44 -16 -204 0 -177 1 -189 21 -207 26 -24
50 -10 62 37 12 47 4 212 -11 217 -17 5 -15 22 2 22 8 0 18 9 21 20 17 54 97
63 115 14 6 -14 10 -85 10 -159 0 -108 3 -137 16 -149 21 -21 41 -20 54 3 17
32 13 304 -5 349 -17 41 -58 72 -97 72 -28 0 -86 -34 -95 -56 -5 -12 -9 -8
-17 17 -12 38 -36 48 -60 24z"/>
<path d="M2979 1877 c-42 -20 -61 -39 -82 -87 -29 -64 -28 -189 1 -247 39 -75
107 -106 189 -84 69 19 124 101 88 131 -14 11 -22 8 -58 -28 -23 -23 -56 -44
-73 -48 -27 -5 -34 -2 -54 25 -12 18 -24 50 -27 71 l-6 40 105 0 c67 0 108 4
116 12 33 33 -4 161 -59 201 -33 23 -105 31 -140 14z m102 -86 c19 -20 29 -40
29 -60 l0 -31 -75 0 c-73 0 -75 1 -75 25 0 50 35 92 78 94 8 1 27 -12 43 -28z"/>
<path d="M3323 1875 c-42 -18 -66 -57 -67 -108 -1 -62 24 -91 106 -123 85 -34
109 -61 84 -99 -12 -19 -25 -25 -52 -25 -35 0 -44 6 -93 70 -16 21 -21 22 -35
11 -47 -39 11 -132 91 -145 49 -9 117 8 143 34 29 29 43 94 30 136 -14 40 -47
64 -124 89 -28 9 -57 22 -63 27 -20 16 -15 55 8 71 29 21 59 11 95 -31 49 -55
95 -22 59 44 -30 55 -115 79 -182 49z m-3 -39 c0 -3 -4 -8 -10 -11 -5 -3 -10
-1 -10 4 0 6 5 11 10 11 6 0 10 -2 10 -4z"/>
<path d="M3662 1873 c-40 -20 -62 -59 -62 -112 0 -55 34 -92 105 -116 31 -11
65 -28 76 -38 39 -37 13 -87 -46 -87 -25 0 -39 8 -59 33 -15 17 -31 37 -36 44
-14 17 -39 5 -46 -23 -14 -57 62 -124 141 -124 90 0 150 64 142 150 -6 54 -44
91 -113 110 -80 23 -116 69 -79 100 29 24 67 15 100 -25 38 -44 68 -45 73 -2
9 79 -108 133 -196 90z"/>
<path d="M4980 1880 c-23 -14 -28 -371 -5 -406 18 -28 37 -31 56 -8 9 11 12
42 11 100 -3 116 12 204 39 227 26 21 43 22 63 1 13 -13 16 -42 16 -164 0
-124 3 -151 16 -165 9 -9 24 -15 32 -13 32 6 42 49 42 181 0 122 1 129 25 152
30 31 49 32 69 3 13 -18 16 -52 16 -165 0 -115 3 -144 16 -157 8 -9 21 -16 28
-16 32 0 36 24 36 196 0 170 0 173 -26 203 -32 38 -80 49 -122 27 -17 -9 -35
-24 -41 -33 -9 -16 -12 -15 -34 9 -44 47 -109 46 -153 -3 -17 -19 -18 -19 -30
11 -13 31 -28 37 -54 20z"/>
<path d="M5540 1871 c-6 -12 -10 -95 -10 -201 0 -106 4 -189 10 -201 13 -23
33 -24 54 -3 13 13 16 46 16 200 0 192 -6 224 -40 224 -11 0 -24 -9 -30 -19z"/>
<path d="M5712 1878 c-15 -15 -17 -380 -2 -409 12 -21 27 -24 50 -9 12 7 16
40 20 154 5 136 6 146 29 170 30 31 61 33 87 5 16 -18 19 -41 23 -170 3 -157
10 -177 51 -164 19 6 20 14 20 187 l0 180 -35 35 c-32 32 -40 35 -76 30 -28
-4 -52 -16 -75 -38 l-34 -33 0 25 c0 26 -16 49 -35 49 -6 0 -16 -5 -23 -12z"/>
<path d="M6099 1873 c-17 -19 -26 -318 -12 -373 12 -45 37 -60 60 -37 16 16
18 39 18 206 0 144 -3 192 -14 204 -17 21 -35 21 -52 0z"/>
<path d="M6320 1879 c-62 -25 -91 -91 -66 -150 19 -46 41 -64 109 -89 86 -32
109 -67 70 -103 -40 -35 -91 -22 -127 33 -23 36 -29 39 -47 29 -18 -9 -20 -17
-16 -46 12 -70 85 -112 170 -97 82 13 135 103 104 176 -14 34 -44 53 -149 97
-38 16 -48 25 -48 43 0 32 18 48 55 48 22 0 38 -9 62 -37 26 -32 35 -36 50
-27 25 15 27 54 4 82 -38 44 -116 63 -171 41z"/>
<path d="M6841 1876 c-8 -9 -11 -74 -9 -211 3 -179 5 -199 21 -209 15 -9 22
-7 38 13 16 20 19 39 19 140 0 123 11 185 34 194 8 3 28 1 44 -5 41 -16 62 -5
62 31 0 24 -7 34 -30 46 -42 22 -58 19 -91 -17 -25 -28 -29 -30 -29 -12 0 38
-37 57 -59 30z"/>
<path d="M7165 1876 c-60 -26 -94 -89 -69 -125 21 -29 30 -27 58 18 26 41 59
56 101 45 13 -3 27 -15 30 -25 3 -10 7 -28 11 -39 4 -17 -6 -22 -83 -45 -119
-36 -154 -76 -139 -160 10 -52 44 -85 91 -91 46 -6 91 14 87 38 -5 31 52 19
71 -13 17 -31 38 -37 55 -16 15 19 0 325 -18 362 -28 57 -125 82 -195 51z
m131 -253 c-9 -64 -34 -97 -75 -101 -57 -6 -91 48 -58 91 10 14 97 51 131 56
4 0 5 -20 2 -46z"/>
<path d="M7686 1868 c-13 -18 -16 -55 -16 -198 0 -143 3 -180 16 -198 8 -12
21 -22 29 -22 8 0 21 10 29 22 13 18 16 55 16 198 0 143 -3 180 -16 198 -8 12
-21 22 -29 22 -8 0 -21 -10 -29 -22z"/>
<path d="M7919 1870 c-86 -45 -119 -216 -63 -327 19 -40 35 -57 68 -72 127
-62 236 33 236 204 0 161 -121 259 -241 195z m110 -70 c25 -13 51 -81 51 -133
-1 -116 -87 -180 -143 -105 -22 30 -33 108 -23 164 13 65 67 100 115 74z"/>
<path d="M8242 1878 c-9 -9 -12 -69 -12 -208 0 -139 3 -199 12 -208 16 -16 45
-15 55 1 4 6 10 77 13 155 5 142 5 144 33 168 35 30 61 31 81 2 13 -18 16 -51
16 -153 0 -132 10 -177 40 -182 37 -7 45 13 48 129 2 62 1 141 -3 177 -6 55
-12 70 -40 98 -50 50 -112 44 -162 -15 l-23 -27 0 26 c0 26 -16 49 -35 49 -6
0 -16 -5 -23 -12z"/>
<path d="M1735 1246 c-59 -30 -96 -80 -102 -139 -6 -49 11 -71 49 -65 16 2 31
19 53 61 35 67 47 77 98 77 54 0 87 -35 87 -93 0 -52 -25 -94 -95 -158 -74
-68 -169 -168 -182 -192 -7 -12 -12 -33 -12 -47 -1 -53 5 -55 191 -60 189 -6
218 0 218 44 0 42 -24 51 -154 56 l-121 5 121 120 c134 132 149 160 142 250
-8 101 -70 156 -183 163 -49 3 -69 -1 -110 -22z"/>
<path d="M2232 1249 c-83 -42 -117 -142 -110 -334 4 -147 30 -214 99 -264 76
-56 187 -37 248 41 35 44 52 107 58 208 10 174 -33 303 -116 347 -56 29 -122
30 -179 2z m147 -93 c30 -32 44 -123 39 -252 -6 -125 -23 -175 -67 -194 -37
-15 -76 1 -95 39 -41 78 -40 323 2 394 28 49 82 55 121 13z"/>
<path d="M3033 1234 c-54 -70 -69 -84 -133 -122 -71 -42 -83 -67 -51 -96 18
-16 24 -17 51 -6 17 7 47 26 67 41 20 16 40 29 45 29 6 0 8 -83 5 -212 -5
-211 -5 -211 19 -235 28 -28 38 -29 64 -3 19 19 20 33 20 313 0 272 -1 295
-18 310 -27 24 -38 21 -69 -19z"/>
<path d="M3433 1251 c-56 -26 -90 -82 -109 -178 -33 -174 -5 -332 73 -405 75
-71 190 -64 260 16 51 57 66 126 61 280 -4 140 -21 201 -71 255 -48 52 -139
66 -214 32z m149 -102 c27 -36 41 -140 34 -252 -7 -110 -26 -163 -68 -187 -25
-13 -31 -13 -55 0 -15 8 -36 31 -47 50 -19 31 -21 52 -21 180 0 121 3 153 19
187 29 66 98 76 138 22z"/>
<path d="M4135 1252 c-106 -50 -157 -212 -66 -212 23 0 32 7 45 34 9 19 16 38
16 44 0 5 12 21 26 36 49 48 127 31 154 -34 25 -60 2 -99 -132 -229 -150 -145
-184 -204 -139 -245 16 -14 41 -16 196 -14 168 3 178 4 192 24 12 19 11 24 -6
45 -18 22 -27 24 -143 29 l-123 5 112 110 c61 61 121 126 132 145 22 37 27 70
11 70 -5 0 -10 5 -10 11 0 5 5 7 10 4 6 -4 10 9 10 32 0 53 -37 112 -85 137
-55 29 -148 32 -200 8z"/>
<path d="M6520 1247 c-36 -19 -51 -36 -75 -82 -30 -58 -30 -60 -30 -219 0
-156 1 -163 27 -213 47 -88 120 -126 213 -109 47 9 103 60 128 116 42 95 39
328 -6 417 -35 70 -85 106 -155 110 -45 3 -66 -1 -102 -20z m128 -73 c48 -33
57 -69 57 -219 0 -111 -4 -150 -18 -186 -34 -88 -109 -89 -152 -4 -17 34 -20
60 -20 180 0 155 15 207 65 232 33 16 41 16 68 -3z"/>
<path d="M7730 1259 c-92 -37 -138 -167 -127 -358 8 -144 39 -212 115 -258 25
-16 53 -23 87 -23 135 0 205 108 205 316 0 170 -36 266 -115 311 -43 24 -120
30 -165 12z m145 -119 c17 -30 20 -56 23 -182 3 -130 2 -151 -17 -192 -35 -80
-111 -84 -147 -8 -23 48 -31 243 -14 326 15 75 38 98 93 94 35 -3 44 -8 62
-38z"/>
<path d="M4797 1243 c-16 -19 -42 -142 -53 -255 -7 -66 -6 -67 20 -79 23 -11
31 -9 69 18 56 40 80 47 122 33 78 -26 99 -161 35 -230 -22 -23 -36 -30 -67
-30 -45 0 -71 19 -107 78 -30 48 -67 57 -86 21 -26 -48 36 -146 107 -170 54
-18 135 -14 179 9 81 42 114 101 114 205 0 68 -3 79 -32 123 -44 65 -106 93
-176 77 -26 -5 -54 -13 -63 -17 -14 -6 -15 0 -7 51 13 88 5 83 126 83 93 0
111 3 125 18 21 23 22 46 1 66 -12 13 -41 16 -153 16 -119 0 -140 -2 -154 -17z"/>
<path d="M5325 1238 c-6 -20 -8 -20 -12 -5 -2 9 -8 17 -13 17 -18 0 -28 -36
-50 -173 -22 -132 -22 -138 -5 -157 24 -27 35 -25 84 10 54 39 90 46 129 26
41 -21 62 -63 62 -121 0 -121 -100 -179 -173 -102 -18 19 -40 46 -50 60 -46
69 -103 -4 -63 -81 35 -67 97 -96 195 -90 85 4 139 38 172 106 60 123 18 260
-93 306 -47 20 -74 20 -128 1 l-42 -15 7 53 c12 93 3 87 121 87 121 0 144 8
144 50 0 43 -23 50 -158 50 -115 0 -120 -1 -127 -22z"/>
<path d="M5787 1245 c-18 -17 -21 -29 -46 -185 -12 -73 -16 -121 -10 -132 18
-33 46 -31 101 7 65 45 107 43 151 -5 48 -54 35 -189 -22 -220 -57 -30 -120
-2 -159 70 -20 37 -53 50 -78 30 -38 -33 6 -130 76 -168 64 -34 168 -29 229
11 114 76 121 286 13 361 -60 40 -116 43 -195 11 -15 -6 -17 -4 -13 16 3 13 8
45 11 72 l6 47 110 0 c96 0 111 2 129 20 11 11 20 25 20 30 0 6 -9 19 -20 30
-18 18 -33 20 -154 20 -106 0 -138 -3 -149 -15z"/>
<path d="M6988 1249 c-21 -12 -31 -48 -54 -197 -16 -108 -16 -113 1 -132 21
-23 44 -19 91 16 88 68 184 15 184 -101 0 -79 -45 -135 -110 -135 -42 0 -69
20 -104 78 -30 48 -57 54 -82 18 -14 -23 -14 -28 4 -69 11 -24 37 -57 57 -73
51 -39 161 -47 221 -16 79 40 117 106 117 202 1 163 -125 249 -274 186 -14 -6
-15 -1 -8 44 15 96 7 90 129 90 85 0 112 3 124 16 22 21 20 61 -3 74 -25 13
-270 13 -293 -1z m252 -318 c0 -6 -4 -13 -10 -16 -5 -3 -10 1 -10 9 0 9 5 16
10 16 6 0 10 -4 10 -9z"/>
<path d="M8176 1247 c-16 -12 -32 -84 -59 -268 -6 -42 14 -79 43 -79 10 0 32
11 48 25 65 54 126 55 166 2 44 -60 40 -145 -12 -199 -52 -56 -126 -31 -174
60 -18 34 -53 43 -76 20 -33 -33 7 -125 71 -163 36 -20 57 -25 113 -25 84 0
134 25 178 88 26 37 31 54 34 117 3 61 0 82 -18 120 -41 85 -142 125 -224 91
-22 -9 -40 -15 -41 -14 -2 2 2 33 7 71 l10 67 113 0 c96 0 114 3 128 18 21 23
22 46 1 66 -20 21 -280 23 -308 3z"/>
<path d="M1290 1085 l0 -84 -77 -3 -78 -3 -3 -52 -3 -52 78 -3 78 -3 3 -82 3
-83 49 0 49 0 3 83 3 82 78 3 77 3 0 54 0 55 -80 0 -80 0 0 85 0 85 -50 0 -50
0 0 -85z"/>
</g>
</svg>
