<?xml version="1.0" standalone="no"?>
<!DOCTYPE svg PUBLIC "-//W3C//DTD SVG 20010904//EN"
 "http://www.w3.org/TR/2001/REC-SVG-20010904/DTD/svg10.dtd">
<svg version="1.0" xmlns="http://www.w3.org/2000/svg"
 width="300.000000pt" height="231.000000pt" viewBox="0 0 300.000000 231.000000"
 preserveAspectRatio="xMidYMid meet">

<g transform="translate(0.000000,231.000000) scale(0.100000,-0.100000)"
fill="#003070" stroke="none">
<path d="M0 260 c0 -16 5 -30 10 -30 6 0 10 -33 10 -80 0 -47 -4 -80 -10 -80
-5 0 -10 -13 -10 -30 l0 -30 125 0 125 0 0 55 0 55 -40 0 c-36 0 -40 -2 -40
-25 0 -20 -5 -25 -25 -25 -21 0 -25 5 -25 29 0 19 6 30 18 33 24 7 24 38 0 38
-13 0 -18 8 -18 31 0 26 3 30 23 27 14 -2 23 -11 25 -25 3 -19 10 -23 43 -23
l39 0 0 55 0 55 -125 0 -125 0 0 -30z"/>
<path d="M330 260 c0 -16 5 -30 10 -30 6 0 10 -33 10 -80 0 -47 -4 -80 -10
-80 -5 0 -10 -13 -10 -30 l0 -30 105 0 c58 0 108 0 113 0 4 0 7 19 7 43 0 41
-1 42 -37 45 -29 2 -38 0 -38 -12 0 -9 -7 -16 -15 -16 -12 0 -15 16 -15 80 0
64 3 80 15 80 10 0 15 10 15 30 l0 30 -75 0 -75 0 0 -30z"/>
<path d="M800 260 c0 -16 5 -30 10 -30 6 0 10 -33 10 -79 0 -44 -4 -83 -10
-86 -5 -3 -10 -17 -10 -31 0 -23 3 -24 65 -24 62 0 65 1 65 24 0 14 -4 28 -10
31 -5 3 -10 34 -9 68 l0 62 37 -92 c31 -77 41 -93 59 -93 18 0 27 15 55 93
l33 92 3 -60 c2 -36 -1 -61 -7 -63 -6 -2 -11 -17 -11 -33 l0 -29 70 0 70 0 0
30 c0 17 -4 30 -10 30 -6 0 -10 33 -10 80 0 47 4 80 10 80 6 0 10 14 10 30 l0
31 -82 -3 -83 -3 -19 -60 -19 -59 -21 59 -21 60 -88 3 -87 3 0 -31z"/>
<path d="M1585 150 l0 -140 53 0 52 0 -2 68 c-2 54 0 67 12 67 18 0 27 -62 11
-78 -6 -6 -11 -21 -11 -34 0 -21 4 -23 60 -23 57 0 60 1 60 24 0 14 -4 28 -10
31 -5 3 -10 27 -10 53 0 78 -43 113 -101 82 -18 -10 -19 -7 -19 40 l0 50 -47
0 -48 0 0 -140z"/>
<path d="M2690 260 c0 -27 3 -30 30 -30 27 0 30 3 30 30 0 27 -3 30 -30 30
-27 0 -30 -3 -30 -30z"/>
<path d="M2892 274 c-12 -8 -22 -23 -22 -33 0 -10 -3 -21 -7 -25 -5 -4 -8 -52
-8 -107 l-1 -99 63 0 c61 0 63 1 63 25 0 14 -7 28 -15 31 -10 4 -15 20 -15 45
0 28 4 39 15 39 20 0 20 49 0 56 -20 8 -9 24 16 24 14 0 19 7 19 30 0 29 -2
30 -43 30 -23 0 -53 -7 -65 -16z"/>
<path d="M1910 231 c0 -11 -5 -21 -12 -23 -15 -5 -21 -45 -8 -53 6 -3 10 -28
10 -54 0 -64 28 -101 75 -101 51 0 65 9 65 41 0 24 -4 29 -25 29 -22 0 -25 4
-25 40 0 36 3 40 25 40 21 0 25 5 25 30 0 25 -4 30 -25 30 -18 0 -25 5 -25 20
0 17 -7 20 -40 20 -33 0 -40 -3 -40 -19z"/>
<path d="M1319 181 c-38 -38 -41 -106 -6 -146 29 -35 99 -45 145 -21 43 22 61
80 41 133 -17 45 -48 63 -107 63 -35 0 -49 -6 -73 -29z m99 -74 c3 -32 0 -37
-17 -37 -17 0 -21 6 -21 33 0 61 33 63 38 4z"/>
<path d="M2138 203 c-12 -3 -18 -14 -18 -34 l0 -30 54 6 c35 5 56 3 60 -4 4
-6 1 -11 -6 -11 -27 0 -88 -21 -103 -36 -22 -22 -19 -60 7 -78 24 -17 69 -21
82 -9 4 5 34 6 67 5 57 -4 59 -3 59 21 0 14 -4 29 -10 32 -5 3 -10 28 -10 56
0 71 -21 89 -102 88 -35 -1 -71 -3 -80 -6z m102 -123 c0 -5 -9 -10 -20 -10
-11 0 -20 5 -20 10 0 6 9 10 20 10 11 0 20 -4 20 -10z"/>
<path d="M2410 181 c0 -17 5 -33 10 -36 6 -3 10 -21 10 -40 0 -19 -4 -37 -10
-40 -5 -3 -10 -17 -10 -31 0 -23 3 -24 65 -24 l65 0 0 30 c0 20 -5 30 -15 30
-10 0 -15 10 -15 30 0 31 22 50 59 50 17 0 21 6 21 30 0 26 -4 30 -28 30 -15
0 -33 -5 -40 -12 -9 -9 -12 -9 -12 0 0 8 -18 12 -50 12 -49 0 -50 -1 -50 -29z"/>
<path d="M2660 181 c0 -17 5 -33 10 -36 6 -3 10 -21 10 -40 0 -19 -4 -37 -10
-40 -5 -3 -10 -17 -10 -31 0 -23 3 -24 60 -24 57 0 60 1 60 24 0 14 -4 28 -10
31 -5 3 -10 37 -10 76 l0 69 -50 0 c-49 0 -50 -1 -50 -29z"/>
</g>
</svg>
