<?xml version="1.0" standalone="no"?>
<!DOCTYPE svg PUBLIC "-//W3C//DTD SVG 20010904//EN"
 "http://www.w3.org/TR/2001/REC-SVG-20010904/DTD/svg10.dtd">
<svg version="1.0" xmlns="http://www.w3.org/2000/svg"
 width="729.000000pt" height="655.000000pt" viewBox="0 0 729.000000 655.000000"
 preserveAspectRatio="xMidYMid meet">

<g transform="translate(0.000000,655.000000) scale(0.100000,-0.100000)"
fill="#003070" stroke="none">
<path d="M0 3275 l0 -3275 3645 0 3645 0 0 3275 0 3275 -3645 0 -3645 0 0
-3275z m4098 2939 c78 -20 130 -54 174 -115 17 -24 52 -64 78 -89 26 -25 62
-66 79 -92 18 -27 36 -48 41 -48 4 0 19 -17 31 -37 13 -21 46 -63 74 -94 27
-31 88 -101 135 -157 46 -56 88 -102 92 -102 4 0 22 -21 39 -47 18 -27 39 -52
46 -56 7 -4 13 -14 13 -21 0 -7 30 -47 68 -88 37 -41 94 -110 127 -152 33 -43
68 -84 78 -91 10 -7 46 -51 81 -98 66 -90 152 -194 195 -237 15 -14 44 -48 66
-75 22 -27 65 -76 96 -110 31 -33 70 -78 85 -101 30 -42 101 -129 179 -219 24
-27 59 -69 77 -92 71 -90 176 -219 233 -286 33 -38 76 -90 95 -115 19 -24 68
-77 107 -118 40 -41 81 -91 92 -112 11 -20 61 -80 111 -132 136 -141 167 -195
184 -318 9 -61 -17 -175 -51 -222 -30 -42 -96 -90 -124 -90 -26 0 -31 -28 -19
-106 5 -38 10 -103 10 -144 0 -41 5 -93 10 -115 5 -22 15 -141 21 -263 9 -173
9 -236 0 -277 -17 -75 -67 -137 -138 -172 -54 -26 -68 -28 -202 -32 -166 -4
-242 9 -305 50 l-42 28 -52 -19 c-29 -11 -94 -29 -145 -41 -81 -18 -113 -20
-272 -16 -131 4 -207 11 -278 27 l-98 21 -97 -23 c-93 -22 -113 -23 -537 -23
-396 0 -447 2 -512 18 -72 19 -73 19 -175 -3 -84 -19 -120 -22 -200 -16 -145
9 -318 55 -349 92 -11 13 -30 14 -119 9 -82 -6 -126 -3 -196 10 -179 35 -275
94 -364 223 l-42 62 -28 -15 c-16 -8 -36 -15 -45 -15 -9 0 -26 -6 -38 -12 -63
-35 -103 -37 -807 -37 -514 0 -707 3 -740 12 -155 42 -231 200 -186 387 16 69
64 138 180 262 48 52 95 110 104 129 9 19 39 56 67 83 49 48 90 98 289 347 54
68 118 144 142 169 23 25 66 75 96 112 63 80 142 176 258 315 98 116 207 251
265 327 22 29 51 63 64 77 12 13 35 40 49 59 14 19 42 53 62 75 20 22 64 78
98 125 34 47 82 105 107 130 25 24 57 62 72 85 15 22 66 84 113 138 94 109
126 148 249 299 101 125 125 154 236 288 47 58 112 136 143 174 31 38 71 85
88 105 17 20 37 47 44 60 6 13 47 62 89 110 42 47 94 111 116 141 22 30 60 78
85 105 25 28 58 67 74 87 39 50 92 84 157 101 74 20 118 20 197 1z m1589
-4795 c15 -5 40 -22 55 -36 24 -22 37 -26 120 -30 52 -3 105 -11 121 -20 32
-16 67 -68 67 -99 0 -11 6 -28 13 -37 11 -15 25 -15 140 -7 112 9 133 14 160
34 18 14 46 28 62 31 17 4 48 24 70 45 22 21 50 41 62 44 34 11 355 9 383 -2
14 -6 39 -24 55 -42 l30 -31 4 -244 c3 -233 2 -247 -18 -287 -36 -72 -56 -81
-203 -86 -123 -4 -129 -6 -134 -27 -3 -12 -21 -38 -40 -56 -34 -33 -37 -34
-136 -37 -127 -5 -165 10 -197 74 -21 41 -25 44 -64 44 -23 1 -229 0 -457 -2
-228 -1 -484 -1 -569 0 l-153 3 -34 -40 c-19 -21 -55 -49 -80 -61 -39 -19 -57
-22 -127 -18 -54 3 -92 11 -113 23 -30 18 -32 18 -75 -3 -51 -25 -164 -30
-232 -11 -36 10 -87 53 -87 74 -1 36 -13 38 -251 37 -162 0 -235 -4 -237 -12
-9 -25 -58 -74 -89 -86 -46 -20 -150 -18 -193 4 -19 9 -46 34 -59 55 -13 20
-29 37 -35 37 -6 0 -30 -22 -53 -48 -50 -59 -99 -76 -202 -70 -77 4 -111 21
-146 75 -16 25 -32 34 -90 47 -38 10 -79 20 -90 22 -15 4 -25 -3 -38 -28 -22
-40 -92 -95 -138 -108 -46 -14 -154 -12 -201 2 -23 7 -51 26 -68 47 -58 71
-60 72 -83 65 -12 -4 -216 -6 -452 -6 l-430 2 -38 -40 c-60 -61 -109 -80 -207
-80 -106 0 -161 23 -191 81 l-19 39 -306 0 c-187 0 -322 4 -348 11 -73 18
-151 98 -170 172 -4 16 -7 64 -7 107 0 113 30 171 97 189 28 7 36 21 48 81 7
36 62 88 104 100 48 13 167 13 217 -1 22 -6 57 -27 77 -46 l37 -36 34 17 c19
9 40 16 46 16 7 0 30 18 52 39 45 46 91 57 196 48 53 -4 70 -10 95 -33 16 -16
34 -39 39 -51 13 -33 31 -28 54 15 36 67 59 72 312 70 207 -3 223 -4 250 -24
15 -11 34 -38 41 -60 7 -21 16 -42 21 -47 4 -4 33 -2 64 4 38 8 69 8 94 2 45
-11 63 -7 63 14 0 27 41 83 72 99 23 12 61 16 164 15 167 -1 204 -14 239 -84
8 -16 24 -24 65 -30 30 -4 72 -16 93 -27 35 -19 38 -19 43 -3 3 10 15 38 27
62 33 68 78 84 226 79 120 -3 116 -2 188 -53 10 -7 17 -5 25 8 16 30 72 47
150 47 87 0 133 -20 160 -71 17 -32 21 -34 86 -40 37 -3 79 -10 95 -14 25 -7
28 -4 33 24 8 40 58 89 98 96 17 4 149 5 293 3 l261 -3 27 -25 c15 -14 33 -37
40 -51 12 -22 23 -27 67 -32 60 -6 104 -26 141 -63 18 -18 32 -24 46 -19 12 3
21 10 21 15 0 4 11 11 25 14 19 5 27 16 36 50 15 59 58 102 112 112 60 10 132
7 172 -8 34 -12 75 -63 75 -93 0 -18 18 -21 115 -21 77 1 80 2 85 26 7 36 54
122 78 143 11 10 33 22 48 27 41 12 138 12 171 -1z"/>
<path d="M3967 5882 c-20 -21 -37 -42 -37 -48 0 -6 -21 -32 -46 -58 -26 -28
-43 -54 -40 -62 9 -23 34 -16 44 14 l10 27 1 -31 c1 -41 -36 -69 -73 -54 -36
13 -40 -3 -8 -33 l28 -27 37 34 c30 27 37 41 37 72 l1 39 15 -28 c14 -25 13
-30 -5 -55 -10 -15 -35 -42 -55 -61 l-36 -35 -28 27 c-15 15 -33 27 -40 27
-17 0 -15 -30 3 -36 8 -3 28 -28 45 -54 24 -37 31 -58 28 -87 -3 -36 -5 -38
-38 -40 -34 -1 -34 -1 -5 5 49 11 44 41 -19 108 l-54 59 -36 -34 c-46 -44 -54
-70 -30 -88 16 -11 16 -15 5 -23 -8 -4 -24 -4 -36 0 -18 7 -28 3 -50 -20 -25
-27 -26 -31 -20 -93 6 -52 4 -70 -9 -88 -24 -34 -20 -42 18 -35 29 6 37 3 50
-16 33 -46 17 -92 -46 -138 -42 -31 -110 -41 -123 -20 -3 6 -12 10 -20 10 -11
0 -13 -11 -8 -50 5 -44 2 -54 -23 -87 -40 -54 -54 -62 -100 -63 -52 0 -69 18
-60 65 4 19 3 35 -2 35 -40 0 -79 -31 -165 -134 -78 -92 -95 -119 -99 -154 -4
-24 -17 -57 -31 -75 -13 -18 -28 -51 -32 -75 -9 -56 -29 -56 -21 1 3 23 8 52
12 65 10 34 -13 27 -36 -10 -11 -18 -40 -55 -65 -81 -25 -27 -44 -54 -42 -60
2 -7 21 -15 43 -18 21 -3 55 -13 74 -23 62 -33 240 -196 240 -220 0 -6 -5 -5
-12 2 -19 19 -50 14 -93 -15 -45 -30 -131 -42 -177 -24 -32 12 -38 41 -9 41
10 0 43 11 73 25 42 20 62 24 97 19 35 -5 43 -4 39 7 -3 9 -33 18 -85 24 -79
11 -133 34 -133 57 0 7 -12 25 -27 40 -41 43 -71 37 -124 -23 -69 -80 -70 -73
11 -152 40 -39 84 -89 100 -112 32 -47 80 -157 87 -200 5 -28 4 -29 -9 -10 -8
11 -21 36 -28 55 -8 19 -27 58 -43 87 -42 76 -178 213 -212 213 -19 0 -56 -62
-45 -75 11 -14 51 -138 46 -143 -8 -8 -46 24 -46 38 0 23 -29 60 -47 60 -8 0
-17 -9 -20 -20 -3 -11 -12 -20 -19 -20 -8 0 -14 -9 -14 -20 0 -13 7 -20 20
-20 11 0 43 -11 71 -25 29 -13 55 -22 60 -20 4 3 10 -7 14 -22 7 -31 23 -55
113 -172 34 -45 62 -85 62 -90 0 -5 -17 -3 -37 5 -21 7 -49 13 -63 14 -14 0
-32 5 -40 10 -24 16 8 31 48 24 20 -4 32 -2 32 5 0 7 -25 11 -69 11 -82 0
-101 6 -101 31 0 12 -9 21 -27 25 -16 3 -36 8 -45 11 -55 14 32 49 99 39 40
-5 44 -4 33 9 -15 18 -111 21 -138 4 -13 -8 -27 -7 -57 5 -60 25 -32 40 75 40
50 0 90 4 90 8 0 16 -42 28 -103 28 -110 0 -123 -6 -183 -80 -30 -37 -54 -73
-54 -81 0 -8 13 -20 29 -27 31 -14 41 -36 41 -94 0 -32 -8 -46 -57 -98 -32
-33 -62 -60 -68 -60 -19 0 -149 -100 -185 -142 -41 -49 -70 -138 -90 -273 -13
-83 -49 -167 -82 -189 -87 -57 -200 13 -144 90 19 25 31 12 15 -14 -29 -46 36
-95 95 -72 49 18 57 65 26 147 -12 33 -17 63 -14 82 6 27 4 29 -15 24 -24 -6
-25 1 -11 43 6 17 23 35 40 42 30 14 42 42 17 42 -18 0 -84 -73 -206 -225 -57
-71 -111 -135 -119 -142 -21 -17 -7 -43 23 -43 14 0 25 -5 25 -11 0 -6 -7 -8
-16 -5 -24 9 -54 -12 -54 -39 0 -34 22 -115 32 -115 15 0 33 -46 38 -100 4
-44 9 -57 27 -65 17 -7 43 -43 43 -59 0 -2 -16 -4 -36 -4 -30 0 -35 3 -31 19
3 12 0 19 -9 19 -8 0 -14 -9 -14 -20 0 -13 -12 -25 -35 -34 -32 -14 -35 -19
-35 -55 0 -44 11 -52 32 -23 24 34 56 44 121 37 54 -6 65 -4 80 13 15 16 16
26 9 53 -5 19 -14 33 -21 32 -6 -2 -11 1 -11 6 0 12 51 24 61 14 4 -4 10 -40
12 -79 5 -90 10 -97 56 -89 26 4 56 -1 106 -20 82 -30 75 -28 75 -11 0 21 -62
56 -99 56 -48 0 -101 25 -101 49 0 11 -4 22 -10 26 -11 7 -2 35 11 35 5 0 9
-9 9 -21 0 -36 19 -59 49 -59 24 0 33 7 50 43 12 24 21 53 21 65 0 11 10 33
23 47 43 51 160 41 195 -16 19 -30 9 -34 -40 -14 -57 22 -120 13 -148 -22 -11
-14 -20 -33 -20 -42 0 -10 -5 -22 -12 -29 -9 -9 -9 -15 1 -25 10 -10 16 -7 29
11 39 55 69 85 79 79 7 -4 0 -19 -18 -39 -31 -32 -35 -63 -9 -63 7 0 17 14 22
32 9 34 42 53 61 34 8 -8 7 -11 -5 -11 -8 0 -21 -7 -28 -15 -10 -13 -10 -19 5
-35 17 -19 17 -21 1 -39 -10 -11 -15 -25 -11 -30 14 -24 -6 -49 -43 -55 -47
-8 -44 -8 -129 0 -66 6 -76 4 -117 -20 -24 -14 -49 -26 -55 -26 -16 0 -13 26
4 40 14 11 22 60 10 60 -11 0 -48 -37 -61 -62 -12 -24 -21 -28 -57 -28 -89 0
-206 -31 -166 -44 8 -2 176 -7 374 -10 l360 -6 60 26 c33 14 69 28 80 31 11 3
67 26 125 51 105 44 484 199 570 232 85 32 245 102 253 110 5 4 0 17 -12 29
-29 29 -36 66 -18 95 38 57 182 40 202 -23 8 -28 27 -26 110 8 39 16 122 50
185 76 63 25 164 67 223 92 l109 46 -7 45 c-4 24 -9 50 -11 57 -4 9 -81 14
-287 20 -155 5 -302 8 -327 7 -27 -1 -108 -25 -205 -62 -88 -34 -203 -77 -255
-97 -52 -19 -118 -46 -145 -58 -57 -27 -105 -40 -105 -31 0 27 74 122 285 371
24 28 104 124 179 215 76 91 150 180 166 198 16 18 34 48 40 67 7 22 23 41 41
50 25 13 41 45 23 45 -13 0 -50 -25 -62 -42 -18 -24 -65 -48 -97 -48 -27 0
-33 18 -13 38 9 9 9 12 1 12 -7 0 -15 -4 -18 -10 -6 -10 -95 -15 -95 -5 0 16
92 86 134 101 l51 19 -41 3 c-33 2 -53 -5 -117 -44 -61 -37 -89 -48 -132 -52
-40 -3 -55 -1 -55 8 0 21 88 98 126 110 63 21 245 -2 311 -39 23 -13 49 -21
57 -18 38 15 26 37 -72 134 -54 54 -111 121 -127 148 -15 28 -38 66 -50 85
-12 19 -34 75 -50 123 -32 100 -37 196 -16 270 17 58 81 133 136 158 52 24
136 25 164 2 22 -19 37 -63 20 -63 -5 0 -9 6 -9 14 0 29 -84 36 -141 12 -35
-15 -83 -62 -108 -106 -22 -37 -27 -189 -8 -247 8 -27 17 -60 21 -74 12 -53
178 -282 259 -357 48 -45 88 -4 51 52 l-16 26 45 0 c27 0 49 6 57 15 14 17 16
16 -78 39 -58 15 -141 60 -142 78 0 4 -16 34 -35 67 -38 65 -45 113 -19 149 8
12 26 22 40 22 l24 0 -20 -20 c-47 -47 -13 -84 92 -99 93 -13 156 -64 173
-139 12 -58 35 -33 35 39 0 39 13 52 24 24 8 -21 20 -19 55 11 42 35 42 59 -1
49 -18 -4 -42 -8 -53 -9 -18 -2 -149 78 -200 122 -46 39 -72 107 -59 156 9 39
24 32 17 -9 -10 -61 32 -133 91 -155 17 -6 55 -13 85 -16 31 -3 74 -10 96 -15
22 -4 45 -9 51 -9 7 0 9 38 6 118 -6 149 -24 194 -95 230 -63 33 -90 31 -176
-13 -71 -37 -130 -44 -138 -18 -3 8 6 10 29 7 25 -4 41 0 68 20 70 50 91 58
142 54 61 -6 151 -65 177 -117 31 -61 81 -192 81 -212 0 -31 18 -22 52 26 33
46 69 59 85 31 4 -7 31 -39 58 -71 28 -32 67 -79 88 -103 21 -25 44 -50 50
-57 7 -7 68 -79 137 -160 69 -82 174 -205 233 -274 122 -141 166 -192 257
-301 35 -41 71 -82 79 -91 9 -9 30 -33 46 -54 17 -20 37 -45 45 -54 27 -28
154 -174 204 -234 l49 -59 120 4 c86 2 122 7 125 16 2 7 9 18 16 25 7 6 50 61
96 120 47 59 99 125 115 146 17 21 67 86 112 144 45 58 87 108 93 112 19 12
10 54 -17 83 -16 16 -77 89 -138 163 -60 73 -130 156 -155 184 -25 28 -58 69
-75 90 -16 21 -50 61 -75 89 -77 86 -171 199 -285 341 -105 131 -396 474 -444
524 -27 28 -62 55 -76 61 -16 6 -26 17 -24 27 4 48 -15 58 -46 23 -23 -25 -82
-24 -99 2 -15 25 1 34 24 13 17 -15 24 -16 50 -5 55 23 52 29 -164 284 -37 44
-78 93 -91 107 -27 31 -89 46 -112 28 -22 -19 -11 -77 31 -159 33 -63 36 -75
30 -120 -15 -116 -131 -181 -241 -135 -41 17 -109 20 -116 5 -3 -6 -4 -5 -3 2
4 21 66 37 146 38 98 0 111 5 139 46 20 29 23 42 18 87 -3 28 -12 72 -21 97
-33 95 -14 170 42 170 29 0 28 16 -3 48 -13 15 -73 85 -132 156 -59 72 -113
131 -118 133 -6 2 -27 -14 -48 -35z m22 -103 c57 -57 53 -138 -8 -174 -19 -11
-47 -32 -62 -46 -25 -23 -27 -31 -19 -58 9 -34 9 -34 -14 -25 -11 4 -16 19
-16 45 0 35 5 43 44 71 25 17 50 44 57 60 15 38 4 107 -23 135 -35 37 4 29 41
-8z m181 -238 c20 -38 12 -70 -22 -91 -18 -11 -43 -20 -54 -20 -30 0 -73 -24
-91 -50 -12 -17 -14 -36 -9 -86 7 -68 -2 -81 -28 -41 -25 37 -30 100 -12 139
20 41 43 54 109 62 83 10 117 47 80 88 -15 16 -15 18 0 18 9 0 21 -9 27 -19z
m35 -177 c22 -48 24 -61 15 -89 -12 -36 -61 -77 -68 -57 -2 7 -11 12 -19 12
-10 0 -13 6 -9 16 7 19 -3 64 -15 64 -4 0 -19 -12 -32 -26 l-24 -25 5 33 c5
30 3 32 -12 19 -26 -22 -32 -4 -12 34 15 27 31 38 75 54 31 11 59 20 63 20 4
1 19 -24 33 -55z m-355 -118 c0 -53 -40 -111 -109 -162 l-64 -46 7 48 c7 58
28 89 85 127 28 20 44 39 48 58 4 23 8 27 19 18 8 -6 14 -26 14 -43z m630 -35
c17 -34 11 -84 -18 -133 -48 -81 -112 -119 -225 -134 -64 -9 -151 -45 -123
-52 10 -2 23 1 29 7 12 12 109 15 120 5 3 -4 -8 -21 -26 -40 -47 -49 -89 -49
-183 -3 -12 6 -30 9 -40 6 -17 -4 -17 -5 2 -6 11 0 29 -11 40 -22 10 -12 29
-25 42 -30 32 -12 27 -26 -12 -33 -44 -8 -79 7 -138 61 -26 24 -52 43 -57 43
-21 0 -20 -20 1 -31 32 -16 97 -82 92 -91 -9 -14 -46 -8 -79 12 -17 11 -40 38
-50 60 -10 22 -22 40 -27 40 -4 0 -8 4 -8 9 0 13 92 21 135 11 24 -5 44 -5 51
1 6 5 34 16 62 24 51 16 90 51 142 128 33 48 74 67 149 67 49 0 64 4 81 22 24
26 26 55 3 80 -15 17 -15 18 5 18 12 0 26 -9 32 -19z m-440 -110 c13 -26 12
-72 -3 -92 -7 -9 -32 -26 -57 -39 -40 -21 -52 -22 -130 -15 -112 10 -156 7
-209 -11 -51 -17 -63 -13 -28 11 28 18 160 35 280 35 71 0 80 2 102 26 26 28
32 58 15 69 -15 9 -12 35 5 35 8 0 19 -9 25 -19z m635 -64 c21 -12 37 -26 35
-32 -6 -13 -63 -10 -68 4 -2 6 -9 11 -17 11 -7 0 -18 7 -25 15 -18 21 -54 19
-75 -5 -14 -16 -16 -23 -7 -32 20 -20 13 -32 -8 -13 -11 10 -20 26 -20 35 0
18 25 44 50 52 23 7 90 -10 135 -35z m-905 -148 c0 -5 14 -23 32 -39 25 -23
29 -33 20 -42 -9 -9 -20 -1 -51 32 -37 41 -61 46 -61 14 0 -13 -6 -12 -34 5
-25 16 -42 19 -67 15 -19 -4 -31 -3 -27 1 4 4 36 11 70 15 96 11 118 11 118
-1z m-249 -45 c-29 -14 -56 -23 -58 -20 -6 6 78 44 97 44 8 0 -9 -11 -39 -24z
m889 -147 c0 -7 -18 -23 -40 -36 -22 -12 -47 -36 -56 -53 -11 -22 -19 -27 -27
-19 -18 18 17 77 60 100 45 24 63 26 63 8z m-533 -14 c3 -10 17 -30 30 -44 27
-29 65 -126 53 -134 -28 -17 -90 70 -90 127 0 26 -6 37 -27 50 l-28 17 28 1
c17 0 30 -6 34 -17z m190 -15 c39 -11 93 -73 93 -105 0 -28 -11 -29 -28 -3
-10 16 -23 20 -71 20 -58 0 -61 1 -94 43 -55 69 -56 68 10 61 32 -3 73 -10 90
-16z m-366 -55 c12 -14 12 -16 0 -8 -8 4 -28 12 -45 16 l-31 7 31 1 c19 1 37
-6 45 -16z m-11 -45 c23 -17 30 -29 30 -57 l0 -35 -16 24 c-25 38 -42 48 -69
42 -34 -6 -39 -65 -7 -88 22 -16 10 -28 -18 -19 -53 17 -72 113 -30 147 29 23
66 19 110 -14z m90 -37 c6 -15 10 -63 8 -107 -3 -90 5 -84 -108 -70 -37 5 -77
17 -93 28 -30 21 -67 86 -66 115 0 10 6 4 12 -14 22 -60 47 -75 130 -80 l74
-4 7 60 c5 44 3 69 -9 97 -8 20 -15 39 -15 42 0 13 49 -42 60 -67z m-704 -8
c26 -33 39 -72 54 -168 6 -38 15 -83 20 -99 6 -16 7 -32 4 -35 -14 -15 -54 93
-54 148 0 48 -20 112 -43 139 -22 24 -65 29 -99 11 -28 -15 -31 -6 -6 20 29
32 92 24 124 -16z m-416 -476 c5 -17 10 -65 10 -108 0 -46 4 -79 10 -79 6 0
10 15 10 33 0 58 13 137 22 137 15 0 48 -64 48 -96 0 -17 -7 -48 -15 -67 -19
-45 -20 -90 -2 -85 7 3 16 34 21 71 5 45 13 67 22 67 20 0 27 -61 16 -127 -10
-59 -8 -73 9 -73 5 0 9 19 9 41 0 36 2 40 15 29 10 -8 15 -31 15 -67 0 -30 5
-63 10 -74 28 -52 -54 18 -128 110 -29 36 -65 81 -80 99 -40 51 -42 55 -36 88
3 18 1 35 -5 38 -6 4 -11 22 -11 41 0 19 -4 45 -9 58 -6 14 -7 27 -4 30 10 11
62 -36 73 -66z m510 -33 c99 -54 102 -60 41 -73 -86 -18 -124 -14 -152 15 -40
43 -76 58 -110 44 -16 -7 -29 -19 -29 -26 0 -8 -4 -14 -10 -14 -37 0 22 76 67
85 15 4 33 8 38 11 25 9 96 -10 155 -42z m-842 -233 c-15 -25 3 -43 57 -56 35
-9 40 -14 43 -40 2 -26 -4 -36 -37 -63 -22 -18 -42 -32 -45 -32 -3 0 -3 19 0
43 5 35 1 54 -20 96 -27 52 -27 71 0 71 11 0 12 -4 2 -19z m225 -193 c25 -13
57 -47 57 -60 0 -15 -71 -8 -110 12 -42 21 -70 26 -70 11 0 -11 85 -41 116
-41 13 0 40 -19 69 -49 27 -28 57 -51 69 -53 21 -3 21 -4 -2 -16 -34 -19 -89
2 -153 59 -66 59 -125 89 -179 89 -40 0 -52 12 -27 27 6 4 21 6 32 5 11 -1 38
4 60 13 49 17 109 19 138 3z m-174 -90 c51 -17 98 -53 128 -99 15 -22 44 -59
66 -82 52 -56 69 -97 61 -147 -7 -44 -6 -45 31 -28 22 10 29 8 50 -12 29 -27
33 -71 8 -91 -15 -13 -16 -11 -10 18 4 18 4 40 1 48 -8 19 -43 19 -50 0 -8
-20 -24 -19 -24 1 0 8 -4 12 -10 9 -16 -10 -12 -47 8 -61 16 -12 16 -13 -4
-14 -29 0 -72 35 -88 73 -7 18 -21 75 -30 127 -22 122 -41 164 -89 205 -32 28
-50 35 -103 40 -35 4 -61 11 -58 16 8 13 71 11 113 -3z m541 -28 c0 -6 -7 -13
-15 -16 -8 -4 -25 -28 -37 -54 -18 -40 -31 -52 -70 -70 -26 -12 -48 -26 -48
-31 0 -20 58 -6 110 26 58 37 112 46 143 22 16 -11 14 -16 -27 -56 l-45 -45
-78 11 c-116 17 -156 27 -160 40 -2 6 6 13 19 15 16 2 29 16 43 45 23 48 70
101 100 113 28 12 65 12 65 0z m-559 -30 c52 -15 72 -41 71 -96 0 -45 -17 -75
-53 -95 -24 -12 -77 8 -85 33 -8 28 2 34 31 18 30 -16 41 -8 55 39 8 30 6 36
-20 62 -15 16 -38 29 -50 29 -29 0 -120 -50 -120 -66 0 -20 -99 -64 -144 -64
l-41 1 53 50 c30 27 67 56 84 65 58 30 158 41 219 24z m-26 -87 c5 -15 4 -16
-6 -5 -22 21 -46 13 -74 -24 l-28 -36 32 -25 c42 -33 42 -75 -2 -139 l-32 -49
-64 0 c-59 0 -64 -2 -78 -29 -9 -17 -13 -40 -9 -58 7 -35 -10 -29 -24 8 -7 18
-4 41 11 85 14 41 20 76 16 105 -2 24 -1 41 4 38 5 -3 9 -18 9 -34 0 -33 23
-60 51 -60 30 0 69 48 69 85 0 46 -20 60 -65 45 -19 -6 -41 -10 -48 -7 -6 2 8
10 31 16 24 7 63 29 85 50 59 54 109 68 122 34z m-316 -110 c15 -53 14 -88 -6
-163 -19 -76 -13 -111 24 -146 31 -29 67 -26 96 8 23 27 22 49 -3 55 -24 6
-23 36 1 41 8 1 28 -7 43 -19 24 -19 27 -27 22 -57 -3 -22 -17 -45 -37 -63
-93 -83 -204 25 -203 196 1 71 28 185 44 185 5 0 14 -17 19 -37z m455 -23 c17
-152 93 -245 182 -224 l29 7 -30 -32 c-26 -29 -34 -32 -67 -27 -41 7 -46 -1
-26 -34 10 -16 10 -23 -5 -37 -16 -16 -18 -16 -32 3 -26 38 -160 56 -225 31
-39 -15 -92 -29 -95 -25 -7 6 89 56 142 74 25 9 70 16 100 16 29 0 52 3 50 7
-33 60 -41 95 -45 194 -5 117 11 149 22 47z m-78 -25 c-23 -17 -42 -19 -50 -6
-7 11 11 19 44 20 24 0 24 0 6 -14z m19 -35 c4 -6 -7 -10 -27 -10 -25 0 -29 3
-18 10 19 13 37 13 45 0z m-34 -40 c16 0 29 -4 29 -10 0 -14 -53 -13 -68 2 -6
6 -15 9 -19 5 -12 -12 14 -29 64 -43 40 -11 44 -14 26 -20 -14 -4 -23 -14 -23
-27 0 -17 -6 -13 -38 21 -31 33 -41 39 -55 30 -29 -16 -29 -3 0 26 14 15 33
24 41 21 7 -3 27 -5 43 -5z m-103 -90 c26 -24 32 -61 7 -40 -8 7 -15 18 -15
26 0 7 -8 18 -17 23 -10 6 -13 11 -7 11 5 0 20 -9 32 -20z m62 -17 c0 -20 -16
-8 -23 17 -4 17 -3 19 9 9 8 -6 14 -18 14 -26z m-82 -31 c2 -12 -1 -22 -7 -22
-6 0 -11 4 -11 9 0 5 -3 17 -7 27 -4 12 -2 15 8 12 8 -2 15 -14 17 -26z m-312
-26 c7 -39 63 -96 112 -116 38 -15 158 -8 192 10 12 7 63 14 113 17 81 5 95 3
116 -14 29 -24 21 -49 -10 -30 -17 10 -22 9 -30 -5 -6 -10 -17 -18 -24 -18 -8
0 -24 -9 -35 -20 -32 -32 -67 -34 -179 -11 -127 27 -177 47 -213 84 -34 33
-68 98 -68 127 0 32 18 14 26 -24z m-17 -96 c19 -29 27 -48 21 -54 -16 -16
-12 -25 39 -76 47 -47 70 -90 48 -90 -23 0 -93 41 -106 62 -8 13 -17 55 -20
93 -4 48 -10 69 -19 68 -13 -3 -15 7 -6 32 8 19 6 21 43 -35z m-63 -76 c-4
-13 -18 -31 -32 -41 -26 -17 -26 -16 -61 25 -37 45 -66 53 -82 25 -9 -16 -10
-15 -11 6 0 22 3 23 44 18 47 -7 101 6 126 30 13 12 15 11 18 -13 2 -14 1 -37
-2 -50z m1253 5 c36 -13 51 -35 51 -78 0 -40 -33 -61 -94 -63 -58 -1 -100 17
-115 48 -16 37 -14 52 14 79 27 28 87 34 144 14z m-1052 -32 c77 -30 133 -80
133 -119 0 -19 -1 -20 -17 -6 -10 9 -41 24 -70 34 -28 10 -57 23 -65 29 -17
13 -73 98 -61 94 4 -2 41 -17 80 -32z m367 -2 c-4 -8 -8 -15 -10 -15 -2 0 -4
7 -4 15 0 8 4 15 10 15 5 0 7 -7 4 -15z m-194 -189 c0 -3 -13 -20 -30 -38 -31
-34 -38 -27 -18 17 6 14 19 25 30 25 10 0 18 -2 18 -4z m-574 -101 c-3 -9 -11
-13 -16 -10 -8 5 -7 11 1 21 14 18 24 11 15 -11z"/>
<path d="M4108 5369 c-43 -22 -50 -38 -13 -31 34 6 75 -22 75 -53 0 -13 -4
-27 -10 -30 -15 -9 -12 -25 5 -25 29 0 36 46 17 102 -9 28 -21 53 -27 54 -5 2
-27 -6 -47 -17z"/>
<path d="M3420 5215 c-21 -55 49 -145 114 -145 50 0 76 24 76 71 0 32 -3 39
-19 39 -11 0 -23 -5 -26 -11 -5 -6 -12 -4 -20 7 -12 16 -13 16 -20 -6 -5 -17
-3 -27 9 -35 21 -16 20 -25 -2 -25 -26 0 -51 31 -66 81 -15 51 -32 60 -46 24z"/>
<path d="M3343 5124 c-4 -11 1 -22 13 -31 17 -12 19 -12 22 2 8 38 -22 62 -35
29z"/>
<path d="M3267 5036 c-3 -8 9 -23 31 -37 23 -15 38 -34 40 -48 4 -24 3 -24
-22 -8 -15 10 -27 13 -31 7 -3 -6 -3 -10 1 -10 4 0 -1 -9 -10 -19 -27 -30 -13
-61 27 -61 55 0 88 62 67 125 -17 52 -89 87 -103 51z"/>
<path d="M3928 3658 c2 -123 7 -226 11 -231 7 -7 319 28 329 38 3 2 1 10 -5
17 -20 27 -197 243 -203 248 -3 3 -16 19 -29 35 -41 53 -95 115 -101 115 -3 0
-4 -100 -2 -222z"/>
<path d="M3335 3814 c-22 -8 -46 -23 -53 -34 -13 -21 -12 -21 20 -4 18 10 46
20 61 23 15 3 28 10 28 16 1 15 -12 15 -56 -1z"/>
<path d="M2565 3790 c-4 -6 10 -10 34 -10 23 0 41 5 41 10 0 6 -15 10 -34 10
-19 0 -38 -4 -41 -10z"/>
<path d="M2185 3723 c-9 -10 -30 -34 -48 -53 -57 -63 -87 -104 -87 -118 0 -12
5 -11 26 3 15 9 54 20 88 22 74 7 94 16 107 50 18 47 -18 113 -60 113 -6 0
-18 -8 -26 -17z"/>
<path d="M1887 3363 c-12 -11 -8 -23 8 -23 8 0 15 7 15 15 0 16 -12 20 -23 8z"/>
<path d="M4530 3321 c0 -6 -19 -30 -42 -55 -43 -44 -99 -76 -137 -76 -25 0
-29 -15 -20 -65 13 -63 10 -195 -5 -250 -19 -71 -42 -111 -91 -160 l-44 -42
72 -6 c91 -8 163 -29 207 -62 46 -34 64 -33 56 3 -29 117 -28 152 0 240 31 95
112 178 199 204 22 6 44 15 49 19 4 4 -9 27 -31 51 -21 23 -58 69 -82 100 -57
76 -131 132 -131 99z"/>
<path d="M1439 2828 c0 -2 -2 -13 -5 -26 -7 -38 -22 -60 -46 -68 -13 -4 -34
-15 -47 -25 -21 -17 -22 -19 -6 -25 10 -4 33 -1 52 5 19 7 36 11 37 9 2 -1 13
-22 26 -45 23 -42 24 -87 4 -138 -8 -19 -7 -19 16 -4 20 13 26 26 28 64 2 26
-2 60 -8 74 -5 14 -12 37 -15 51 -3 14 -8 39 -12 55 -3 17 -5 40 -4 53 1 12
-2 22 -8 22 -6 0 -11 -1 -12 -2z"/>
<path d="M1352 2655 c-31 -14 -56 -33 -61 -46 -5 -16 -10 -19 -15 -10 -6 9
-11 9 -22 0 -21 -18 -18 -49 6 -49 11 0 20 5 20 10 0 6 6 10 14 10 8 0 16 10
18 23 2 18 10 23 41 25 54 5 70 -12 64 -65 l-4 -43 20 26 c20 26 20 27 2 81
-10 30 -21 56 -25 58 -3 2 -30 -7 -58 -20z"/>
<path d="M1331 2586 c-8 -10 -9 -16 -1 -21 19 -12 10 -25 -19 -25 -31 0 -45
-20 -36 -51 4 -12 16 -19 31 -19 19 0 24 5 24 26 0 33 33 30 38 -4 2 -12 8
-22 13 -22 8 0 5 47 -7 108 -5 25 -26 29 -43 8z"/>
<path d="M1145 2469 c-27 -33 -57 -68 -66 -77 -37 -40 -80 -102 -76 -109 4 -7
144 -10 195 -4 16 1 15 28 -2 34 -20 8 -26 77 -9 109 7 15 25 31 38 34 14 3
25 7 25 9 0 21 -26 65 -38 65 -10 0 -39 -28 -67 -61z"/>
<path d="M1216 2389 c6 -50 16 -68 37 -69 15 0 20 33 8 52 -14 23 -10 31 11
23 8 -3 19 -23 24 -43 l9 -37 50 3 c61 5 67 10 63 52 -3 32 -6 34 -63 47 -33
8 -79 17 -103 20 l-43 5 7 -53z"/>
<path d="M1800 2335 c-17 -20 -6 -31 21 -19 18 8 19 11 6 22 -11 10 -17 9 -27
-3z"/>
<path d="M1230 2263 c-43 -23 -50 -24 -156 -18 -94 6 -112 4 -123 -9 -8 -9
-12 -19 -9 -21 2 -3 92 -5 200 -5 203 -1 234 4 267 44 22 26 2 36 -67 35 -52
0 -77 -6 -112 -26z"/>
<path d="M5567 1284 c-4 -4 -7 -21 -7 -38 0 -21 -7 -36 -21 -44 -14 -9 -19
-21 -17 -40 3 -26 5 -27 76 -29 l72 -2 0 34 c0 24 -6 38 -20 45 -15 8 -19 19
-17 43 2 29 -1 32 -28 35 -17 2 -34 0 -38 -4z"/>
<path d="M1013 1203 c-10 -3 -13 -45 -13 -158 0 -170 -4 -179 -62 -168 l-27 5
-3 112 -3 111 -30 0 -30 0 -3 -112 -3 -112 -27 -3 c-24 -3 -27 -7 -27 -38 l0
-35 134 -3 c101 -2 136 1 143 10 4 7 8 97 8 199 0 161 -2 188 -16 193 -18 7
-23 7 -41 -1z"/>
<path d="M1404 1197 c-2 -7 -3 -98 -2 -202 l3 -190 218 -3 c171 -2 223 1 245
12 24 12 31 12 62 -5 44 -24 96 -24 141 0 30 16 38 17 59 5 15 -8 57 -13 108
-14 l82 0 1 33 c3 153 0 358 -6 366 -10 17 -45 13 -52 -5 -3 -10 -7 -83 -7
-163 l-1 -146 -58 -3 c-40 -2 -58 1 -61 10 -2 7 -9 39 -16 70 -13 66 -45 97
-108 105 -77 9 -130 -43 -142 -137 l-5 -45 -48 -3 c-47 -3 -48 -2 -41 20 33
92 -44 200 -131 184 -87 -17 -132 -103 -99 -190 5 -13 -1 -16 -35 -16 l-41 0
0 153 c0 106 -4 157 -12 165 -16 16 -47 15 -54 -1z m295 -201 c7 -8 11 -33 9
-57 -4 -53 -30 -75 -68 -56 -20 10 -26 21 -28 55 -2 24 2 50 9 58 15 18 63 18
78 0z m333 -13 c20 -18 24 -73 8 -104 -7 -12 -21 -19 -40 -19 -35 0 -50 23
-50 74 0 58 43 84 82 49z"/>
<path d="M1597 1196 c-8 -9 -12 -26 -10 -40 5 -24 8 -25 77 -23 l71 2 0 29 c0
36 -27 56 -53 39 -12 -7 -24 -8 -33 -2 -20 13 -36 11 -52 -5z"/>
<path d="M2393 1203 c-10 -3 -13 -53 -13 -198 0 -170 2 -194 16 -199 9 -4 25
-4 35 -1 18 6 19 20 19 200 0 167 -2 194 -16 199 -18 7 -23 7 -41 -1z"/>
<path d="M2957 1203 c-4 -3 -7 -21 -7 -39 l0 -33 73 2 c69 2 72 3 75 28 4 35
-21 55 -52 41 -14 -6 -28 -7 -37 -1 -17 10 -43 12 -52 2z"/>
<path d="M3372 1202 c-9 -7 -12 -54 -10 -203 l3 -194 285 -2 c236 -1 291 1
321 14 33 13 39 13 67 -1 38 -19 172 -22 190 -4 17 17 17 369 0 386 -15 15
-45 16 -53 1 -4 -6 -6 -68 -6 -139 1 -70 -1 -140 -5 -154 -6 -24 -10 -26 -59
-26 -31 0 -57 5 -63 13 -6 7 -12 44 -14 82 l-3 70 -30 0 c-30 0 -30 -1 -33
-60 -4 -107 -3 -105 -80 -105 -77 0 -92 9 -92 57 0 102 -101 174 -195 139 -53
-21 -85 -55 -88 -92 -3 -43 35 -45 72 -5 35 38 85 42 120 10 17 -16 21 -30 19
-62 l-3 -42 -142 -3 -143 -3 0 154 c0 106 -4 157 -12 165 -14 14 -28 15 -46 4z"/>
<path d="M3927 1203 c-4 -3 -7 -21 -7 -39 l0 -33 73 2 c69 2 72 3 75 28 4 37
-20 54 -58 41 -18 -7 -32 -7 -35 -1 -7 10 -38 12 -48 2z"/>
<path d="M4303 1203 c-17 -6 -19 -388 -2 -398 5 -4 21 -4 35 -1 l24 6 0 194
c0 168 -2 195 -16 200 -18 7 -23 7 -41 -1z"/>
<path d="M4984 1197 c-2 -7 -3 -98 -2 -202 l3 -190 69 -3 c50 -2 75 1 93 13
23 15 26 15 44 -1 31 -28 111 -31 154 -5 33 19 38 20 58 6 29 -20 129 -20 174
2 33 15 37 15 63 0 38 -23 139 -23 178 0 28 16 32 16 64 -1 26 -14 46 -17 93
-12 33 3 71 5 85 5 14 -1 42 -1 63 -1 57 1 86 0 162 -1 l70 -2 0 120 0 120
-30 0 -30 0 -3 -83 -3 -83 -37 3 -37 3 -5 75 -5 75 -30 0 -30 0 -5 -75 -5 -75
-30 0 -30 0 -5 70 -5 70 -30 0 -30 0 -5 -70 -5 -70 -51 -3 c-33 -2 -55 2 -62
10 -6 8 -12 45 -14 83 l-3 70 -30 0 -30 0 -3 -82 -3 -83 -73 0 c-48 0 -77 5
-84 13 -6 7 -12 44 -14 82 l-3 70 -30 0 -30 0 -5 -80 -5 -80 -72 -3 c-81 -3
-75 -9 -87 83 -4 25 -16 49 -36 70 -26 26 -37 30 -85 30 -47 0 -59 -4 -85 -30
-22 -22 -31 -43 -36 -80 -9 -64 -18 -75 -65 -75 l-39 0 0 149 c0 82 -3 156 -6
165 -7 19 -53 21 -60 3z m326 -217 c39 -39 15 -120 -35 -120 -71 0 -68 138 3
140 6 0 21 -9 32 -20z"/>
<path d="M5767 1203 c-4 -3 -7 -21 -7 -39 l0 -33 73 2 72 2 3 32 c3 28 -1 33
-23 39 -15 4 -31 1 -41 -6 -11 -10 -18 -10 -26 -2 -13 13 -41 16 -51 5z"/>
<path d="M6623 1202 c-9 -6 -13 -54 -15 -162 l-3 -155 -40 0 -40 0 -3 105 c-1
58 -7 109 -12 114 -5 5 -20 6 -34 2 -25 -6 -25 -8 -28 -119 -3 -100 -5 -112
-21 -112 -23 0 -35 -20 -29 -51 l5 -26 111 6 c134 7 147 7 259 0 61 -4 93 -2
103 6 11 10 14 48 14 194 0 189 -4 206 -42 206 -27 0 -30 -17 -32 -178 l-1
-147 -53 -3 c-81 -5 -82 -3 -82 168 0 126 -2 149 -16 154 -20 8 -26 7 -41 -2z"/>
<path d="M455 1141 c-11 -36 3 -61 36 -61 16 0 29 5 29 12 0 9 3 9 12 0 18
-18 56 -15 66 6 12 22 -2 62 -22 62 -28 0 -46 -13 -47 -34 -1 -19 -2 -18 -8 4
-9 33 -56 41 -66 11z"/>
<path d="M1192 1083 c-32 -6 -69 -61 -77 -114 -12 -83 33 -154 107 -165 71
-12 59 -44 -20 -54 -42 -4 -47 -8 -50 -32 -5 -40 33 -56 90 -39 52 16 63 24
84 65 18 34 30 183 20 238 -13 72 -81 116 -154 101z m78 -99 c6 -14 10 -43 10
-65 0 -38 -1 -39 -34 -39 -18 0 -39 7 -47 16 -16 19 -15 79 1 99 20 25 59 19
70 -11z"/>
<path d="M2565 1076 c-17 -7 -39 -25 -48 -40 -24 -36 -25 -137 -2 -172 21 -33
73 -64 108 -64 17 0 27 -5 27 -14 0 -21 -18 -30 -70 -36 -40 -4 -45 -8 -48
-32 -6 -54 80 -61 144 -12 39 29 54 83 54 199 0 105 -15 146 -63 168 -42 20
-62 21 -102 3z m85 -85 c5 -11 10 -40 10 -65 0 -45 0 -46 -33 -46 -42 0 -57
15 -57 58 0 46 16 72 45 72 14 0 29 -8 35 -19z"/>
<path d="M2983 1083 c-66 -13 -106 -106 -84 -190 21 -79 108 -117 180 -80 52
27 80 145 48 206 -24 48 -87 76 -144 64z m66 -82 c7 -5 15 -29 18 -54 5 -40 3
-47 -21 -62 -23 -15 -30 -16 -51 -5 -24 13 -31 35 -25 85 4 40 43 58 79 36z"/>
<path d="M4475 1076 c-17 -7 -38 -24 -46 -37 -22 -33 -33 -123 -18 -152 24
-47 61 -76 105 -83 72 -10 48 -54 -30 -54 -37 0 -53 -21 -40 -53 9 -24 37 -29
87 -16 81 20 106 72 107 223 0 113 -17 156 -72 175 -39 14 -56 13 -93 -3z m85
-85 c5 -11 10 -40 10 -65 0 -44 -1 -46 -29 -46 -53 0 -61 8 -61 59 0 26 5 52
12 59 18 18 56 14 68 -7z"/>
<path d="M685 1038 c-3 -7 -6 -44 -7 -83 l-3 -70 -142 -3 c-158 -3 -147 -8
-155 68 -2 20 -8 25 -33 25 -29 0 -30 -1 -29 -48 0 -52 24 -93 65 -114 29 -15
340 -18 355 -3 10 10 9 214 -1 231 -9 13 -45 11 -50 -3z"/>
<path d="M3247 1044 c-4 -4 -7 -65 -7 -135 0 -70 -3 -134 -6 -143 -4 -10 -18
-16 -35 -16 -26 0 -29 -3 -29 -34 0 -29 4 -34 27 -39 37 -7 69 7 90 40 15 23
18 49 18 178 l0 150 -25 3 c-14 2 -29 0 -33 -4z"/>
<path d="M4867 1043 c-4 -3 -7 -65 -7 -138 0 -139 -5 -155 -47 -155 -19 0 -23
-5 -23 -34 0 -29 4 -34 31 -40 37 -7 60 4 83 40 14 20 19 56 23 155 6 153 2
179 -31 179 -12 0 -26 -3 -29 -7z"/>
<path d="M3610 730 c0 -38 2 -40 29 -40 31 0 40 16 33 58 -3 17 -11 22 -33 22
-27 0 -29 -3 -29 -40z"/>
<path d="M6457 752 c-10 -10 -17 -33 -17 -50 0 -31 1 -32 44 -32 l43 0 0 40
c0 29 -5 44 -18 50 -25 14 -34 13 -52 -8z m50 -38 c-3 -3 -12 -4 -19 -1 -8 3
-5 6 6 6 11 1 17 -2 13 -5z"/>
</g>
</svg>
