<?xml version="1.0" standalone="no"?>
<!DOCTYPE svg PUBLIC "-//W3C//DTD SVG 20010904//EN"
 "http://www.w3.org/TR/2001/REC-SVG-20010904/DTD/svg10.dtd">
<svg version="1.0" xmlns="http://www.w3.org/2000/svg"
 width="568.000000pt" height="509.000000pt" viewBox="0 0 568.000000 509.000000"
 preserveAspectRatio="xMidYMid meet">

<g transform="translate(0.000000,509.000000) scale(0.100000,-0.100000)"
fill="#003070" stroke="none">
<path d="M850 2535 l0 -2155 2175 0 2175 0 0 2155 0 2155 -2175 0 -2175 0 0
-2155z m3858 1220 l2 -541 -182 -105 c-239 -139 -509 -296 -528 -309 -8 -5
-37 -22 -65 -38 -46 -27 -336 -195 -397 -231 -297 -174 -430 -251 -434 -251
-5 0 -98 52 -144 80 -26 16 -608 360 -775 458 -33 20 -76 45 -95 58 -19 12
-71 42 -115 67 -44 25 -165 97 -270 160 l-190 113 -3 530 c-1 291 0 535 3 542
3 10 328 12 1597 10 l1593 -3 3 -540z m-2875 -1632 c-3 -21 -8 -51 -12 -68
l-7 -30 -98 -3 -98 -3 7 48 c14 100 5 93 115 93 l99 0 -6 -37z m222 -20 c-11
-87 -6 -83 -109 -83 -51 0 -95 2 -98 5 -4 5 8 90 18 123 2 8 31 12 100 12 l96
0 -7 -57z m838 10 c3 -5 -11 -102 -30 -217 -28 -165 -32 -210 -22 -216 9 -6
117 -3 125 4 1 0 12 60 24 131 30 179 23 165 83 165 29 -1 63 -7 77 -14 21
-12 29 -12 51 0 21 10 94 14 340 14 l314 1 -2 -33 c-3 -67 -52 -326 -69 -360
-9 -19 -30 -44 -48 -54 -29 -18 -59 -19 -469 -22 -378 -2 -443 -1 -469 13 -27
13 -36 13 -75 0 -61 -21 -277 -21 -317 0 -27 14 -34 14 -68 0 -32 -13 -100
-15 -416 -15 -339 0 -381 2 -412 18 -63 31 -67 54 -36 221 42 233 37 230 375
231 133 1 245 -1 247 -3 2 -2 -7 -69 -20 -148 -14 -79 -23 -145 -21 -147 5 -5
176 -5 181 1 2 2 13 57 24 123 11 65 23 131 26 147 l6 27 92 0 c51 0 95 -2 98
-5 3 -3 -6 -67 -18 -143 -13 -75 -22 -143 -19 -151 4 -11 23 -13 86 -8 45 3
85 9 89 14 7 6 80 401 80 428 0 8 188 6 193 -2z m1297 -14 c0 -19 -53 -341
-65 -396 -5 -22 -2 -23 50 -23 49 0 55 2 59 23 3 12 20 110 38 217 l33 195 98
3 c79 2 97 0 97 -12 0 -8 -14 -92 -31 -188 -16 -95 -35 -203 -41 -240 -12 -79
-35 -121 -80 -145 -29 -16 -65 -18 -272 -21 l-238 -3 7 63 c10 88 20 108 49
108 30 0 27 -9 66 220 17 102 33 193 36 203 5 15 18 17 100 17 89 0 94 -1 94
-21z m550 2 c0 -18 -84 -520 -95 -568 -5 -22 -10 -23 -100 -23 -90 0 -95 1
-95 21 0 21 88 554 95 577 3 8 32 12 100 12 87 0 95 -2 95 -19z m-2465 -673
c-14 -99 -12 -98 -114 -98 -49 0 -92 3 -94 8 -5 6 9 97 19 130 2 8 31 12 100
12 l96 0 -7 -52z m227 5 c-8 -99 -6 -98 -116 -101 l-98 -3 7 53 c14 101 12 99
117 96 l93 -3 -3 -42z m412 -215 c4 -22 1 -37 -10 -50 -22 -23 -39 -24 -28 0
4 9 7 32 6 50 -3 43 23 43 32 0z m832 -15 c-4 -21 -9 -59 -13 -85 -5 -43 -4
-46 18 -50 22 -3 24 -7 23 -60 -1 -32 3 -58 7 -58 5 0 9 9 9 19 0 27 57 81 85
81 26 0 45 -26 37 -50 -7 -22 -44 -60 -72 -75 -18 -9 -71 -13 -178 -12 -169 1
-186 -5 -225 -71 -23 -39 -15 -67 26 -93 37 -22 88 -24 171 -8 43 9 60 9 69 0
27 -27 -38 -43 -174 -43 -103 0 -160 56 -138 135 10 36 70 99 115 119 30 14
31 26 2 30 -13 2 -23 10 -23 18 0 12 13 15 60 15 l60 0 -2 -34 -1 -34 38 44
c32 37 39 54 45 104 11 104 25 145 47 145 18 0 20 -4 14 -37z m189 -13 c9 -15
-39 -30 -96 -30 -50 0 -62 11 -31 29 22 13 119 14 127 1z m-598 -26 c8 -21
-13 -42 -28 -27 -13 13 -5 43 11 43 6 0 13 -7 17 -16z m-425 -45 c6 -19 -13
-204 -22 -213 -23 -23 -30 8 -24 102 3 53 7 103 10 110 4 15 31 16 36 1z
m-319 -90 c-1 -59 1 -69 9 -46 10 29 48 39 48 12 0 -21 8 -19 46 15 59 51 115
51 122 1 6 -42 -71 -101 -131 -101 -14 0 -30 -7 -38 -16 -12 -14 -14 -14 -25
1 -11 14 -30 17 -109 17 l-96 0 -6 29 c-7 37 -31 38 -66 1 -21 -22 -24 -31
-15 -40 17 -17 -3 -35 -33 -30 -33 4 -35 33 -4 73 50 66 137 88 155 40 5 -14
12 -25 15 -25 2 0 14 18 25 41 17 33 24 38 35 29 10 -9 11 -18 4 -37 -5 -13
-6 -29 -3 -35 12 -19 23 7 29 67 8 76 12 88 28 82 8 -3 12 -27 10 -78z m611
62 c3 -5 -8 -25 -24 -46 -35 -44 -46 -73 -32 -87 11 -11 23 0 53 50 25 43 42
32 34 -22 l-6 -41 20 40 c12 23 34 49 51 58 27 16 31 17 36 2 4 -10 -3 -23
-20 -36 -29 -23 -36 -55 -10 -45 43 17 61 17 68 1 9 -26 -56 -48 -157 -52
l-87 -3 -19 31 c-18 30 -20 30 -30 11 -6 -11 -17 -26 -23 -34 -7 -7 -37 -41
-66 -75 -56 -66 -69 -73 -79 -48 -3 10 14 36 50 74 30 31 70 81 87 110 25 40
37 51 51 48 11 -3 19 -1 19 3 0 5 12 22 26 39 26 31 48 39 58 22z m-781 -32
c-4 -4 -38 -11 -75 -15 -59 -6 -68 -5 -68 9 0 18 21 25 85 29 41 3 72 -9 58
-23z m113 -220 c10 -16 -7 -27 -50 -31 -25 -2 -41 2 -43 10 -8 23 79 43 93 21z
m708 2 c9 -14 -16 -29 -54 -33 -26 -2 -35 1 -38 14 -2 11 5 18 20 21 41 8 67
7 72 -2z"/>
<path d="M1580 3743 l1 -488 107 -61 c59 -34 179 -104 267 -156 296 -176 980
-580 1010 -598 17 -9 53 -31 82 -49 45 -28 55 -31 75 -20 26 14 178 102 288
167 41 25 89 53 105 62 17 9 98 57 180 105 83 49 175 103 205 120 30 18 177
103 325 190 149 87 303 177 342 199 l73 41 0 488 0 487 -1530 0 -1530 0 0
-487z m3004 305 c-48 -136 -141 -281 -261 -404 -143 -148 -236 -215 -610 -438
-268 -160 -386 -253 -475 -379 -27 -38 -10 -28 67 38 127 110 245 190 420 285
110 59 347 201 407 242 44 31 27 -45 -30 -130 -89 -136 -277 -278 -535 -406
-95 -47 -192 -102 -217 -123 -69 -56 -171 -164 -210 -222 -19 -28 -38 -51 -42
-51 -3 0 -18 21 -33 48 -39 67 -154 175 -265 248 -52 34 -171 100 -263 147
-238 121 -345 214 -446 384 -42 71 -54 110 -34 106 6 -2 51 -28 100 -60 82
-53 271 -163 279 -163 25 0 351 -227 492 -342 39 -33 72 -55 72 -50 0 16 -61
93 -118 149 -99 97 -203 168 -527 364 -93 57 -208 129 -255 161 -85 57 -209
171 -259 238 -14 19 -28 37 -32 40 -32 28 -187 306 -176 317 3 2 39 -30 81
-71 114 -112 264 -212 511 -341 224 -117 395 -225 515 -323 98 -80 266 -255
309 -322 23 -36 45 -63 49 -60 4 2 23 30 43 61 52 79 64 93 159 190 177 178
345 291 700 472 293 150 407 234 547 404 42 51 57 48 37 -9z m-2080 -7 c5 -7
-20 -102 -68 -256 -12 -39 -14 -40 -57 -40 -47 0 -49 3 -34 58 6 24 5 27 -18
27 -14 0 -29 5 -33 12 -4 7 -17 -10 -33 -43 -25 -52 -28 -54 -68 -57 -31 -2
-43 1 -43 10 0 14 61 156 92 213 34 65 74 82 195 84 34 0 64 -3 67 -8z m150 0
c3 -4 -15 -53 -39 -107 -25 -54 -45 -105 -45 -111 0 -9 16 -13 45 -13 25 0 45
-2 45 -5 0 -4 -7 -19 -15 -35 -13 -24 -22 -30 -49 -30 -105 0 -140 55 -97 152
74 167 67 158 110 158 22 0 42 -4 45 -9z m370 1 c7 -12 -75 -285 -88 -295 -6
-4 -27 -6 -46 -5 -37 3 -42 16 -26 66 6 19 4 22 -18 22 -14 0 -28 5 -32 12 -5
7 -17 -9 -33 -43 -25 -52 -28 -54 -69 -57 -53 -4 -53 0 0 123 49 113 89 163
138 175 47 11 168 12 174 2z m279 2 c3 -4 0 -19 -9 -35 -14 -28 -17 -29 -94
-29 -44 0 -80 -4 -80 -9 0 -4 29 -25 64 -46 97 -56 109 -115 34 -160 -32 -18
-190 -34 -223 -22 -14 6 -14 9 0 37 15 30 17 30 95 30 44 0 80 4 80 9 0 5 -21
21 -47 36 -72 42 -93 64 -93 100 0 40 32 71 85 84 46 10 179 14 188 5z m157
-7 c0 -8 -18 -55 -40 -106 -22 -50 -40 -99 -40 -107 0 -10 12 -14 40 -14 32 0
40 -4 40 -17 -1 -48 -51 -66 -119 -42 -65 23 -67 74 -7 203 l45 96 40 0 c27 0
41 -4 41 -13z m150 1 c0 -7 -9 -33 -20 -57 -26 -56 -25 -61 8 -61 35 0 54 20
81 83 19 45 22 47 61 47 49 0 52 -17 15 -90 -30 -59 -68 -96 -106 -104 -22 -4
-34 -16 -52 -53 -26 -57 -33 -63 -74 -63 -43 0 -48 12 -23 59 21 42 26 71 11
71 -15 0 -33 58 -27 87 4 16 15 43 26 61 17 27 25 32 60 32 25 0 40 -5 40 -12z
m432 0 c3 -7 -3 -37 -13 -68 -9 -30 -29 -95 -44 -143 l-27 -88 -41 3 c-45 3
-50 14 -33 66 6 19 4 22 -16 22 -13 0 -29 5 -35 11 -8 8 -18 -5 -36 -45 -25
-54 -27 -56 -66 -56 -22 0 -42 4 -45 8 -8 14 93 226 123 255 33 34 71 45 163
46 44 1 68 -3 70 -11z m-592 -597 c0 -5 -16 -22 -37 -37 -145 -114 -211 -177
-275 -261 -22 -29 -42 -53 -43 -53 -2 0 -27 28 -55 63 -80 95 -197 214 -246
248 -24 16 -44 34 -44 39 0 6 135 10 350 10 198 0 350 -4 350 -9z m974 -42
c43 -51 32 -115 -25 -145 -41 -21 -82 -10 -115 29 -21 25 -25 38 -20 66 12 80
110 110 160 50z"/>
<path d="M2352 3973 c-11 -4 -42 -54 -42 -67 0 -11 63 2 71 15 20 31 1 64 -29
52z"/>
<path d="M2872 3973 c-11 -4 -42 -54 -42 -66 0 -5 61 1 67 6 1 2 6 18 9 35 7
32 -2 38 -34 25z"/>
<path d="M3888 3970 c-9 -6 -23 -24 -32 -40 l-14 -30 35 4 c42 6 41 4 45 40 3
32 -8 41 -34 26z"/>
<path d="M4340 3400 c0 -5 6 -7 14 -4 25 10 43 -21 41 -71 -2 -38 0 -44 11
-33 12 12 18 38 15 66 -3 32 -81 73 -81 42z"/>
<path d="M4307 3382 c-18 -19 -22 -48 -11 -76 12 -31 22 -15 26 39 1 30 3 55
2 55 0 0 -8 -8 -17 -18z"/>
<path d="M4350 3360 c0 -5 5 -10 10 -10 6 0 10 5 10 10 0 6 -4 10 -10 10 -5 0
-10 -4 -10 -10z"/>
<path d="M4350 3308 c0 -10 -5 -18 -11 -18 -5 0 -7 -4 -4 -10 7 -12 45 -14 45
-2 0 5 -7 17 -15 28 -13 17 -14 17 -15 2z"/>
<path d="M1672 1753 c-9 -52 -9 -69 1 -75 7 -4 47 -8 90 -8 88 0 88 0 102 98
l7 52 -95 0 -94 0 -11 -67z"/>
<path d="M3191 1797 c-5 -13 -12 -45 -16 -70 l-7 -46 183 -3 c272 -4 262 -8
275 90 l7 52 -217 0 -216 0 -9 -23z"/>
<path d="M3697 992 c-31 -33 -34 -44 -9 -35 25 9 52 34 52 50 0 20 -14 16 -43
-15z"/>
<path d="M3844 989 c-19 -22 -19 -22 4 -10 12 6 22 16 22 21 0 15 -5 12 -26
-11z"/>
<path d="M2727 984 c-40 -27 -45 -34 -23 -34 18 0 73 46 65 54 -3 3 -22 -6
-42 -20z"/>
</g>
</svg>
