<?xml version="1.0" standalone="no"?>
<!DOCTYPE svg PUBLIC "-//W3C//DTD SVG 20010904//EN"
 "http://www.w3.org/TR/2001/REC-SVG-20010904/DTD/svg10.dtd">
<svg version="1.0" xmlns="http://www.w3.org/2000/svg"
 width="430.000000pt" height="435.000000pt" viewBox="0 0 430.000000 435.000000"
 preserveAspectRatio="xMidYMid meet">

<g transform="translate(0.000000,435.000000) scale(0.100000,-0.100000)"
fill="#003070" stroke="none">
<path d="M1192 3937 c-28 -30 -28 -58 1 -84 12 -11 111 -84 220 -162 l198
-142 197 142 c231 167 242 176 242 204 0 26 -39 65 -65 65 -10 0 -96 -58 -192
-130 -95 -71 -177 -130 -182 -130 -5 0 -86 59 -180 130 -106 81 -180 130 -194
130 -13 0 -33 -10 -45 -23z"/>
<path d="M2030 3758 c-47 -35 -150 -110 -230 -167 -293 -211 -411 -302 -422
-326 -15 -33 -4 -66 37 -108 60 -62 80 -56 252 75 386 293 448 338 460 334 7
-3 145 -105 306 -226 329 -247 327 -246 391 -183 67 67 59 115 -32 178 -31 21
-124 89 -207 150 -205 152 -447 326 -460 331 -6 3 -49 -24 -95 -58z"/>
<path d="M1814 3256 c-140 -68 -129 -20 -126 -556 l2 -455 -22 29 c-63 80 -62
80 -114 77 -36 -1 -56 -9 -75 -27 l-26 -25 -6 173 c-4 95 -7 234 -7 308 0 136
-7 169 -30 155 -9 -5 -11 -4 -6 3 11 18 -5 14 -26 -5 -18 -16 -18 -16 -12 0
13 35 -34 16 -126 -49 -143 -103 -135 -59 -111 -611 28 -628 26 -613 91 -613
16 0 36 -3 44 -6 11 -4 51 28 130 105 62 61 116 111 118 111 3 0 43 -54 89
-119 46 -66 87 -117 90 -115 4 2 10 -7 13 -21 4 -14 14 -25 22 -25 14 0 14 3
4 18 -7 9 2 2 18 -17 17 -19 29 -38 26 -43 -3 -4 0 -8 5 -8 6 0 11 -8 11 -17
0 -15 -2 -16 -10 -3 -5 8 -10 11 -10 5 1 -5 8 -19 17 -30 12 -16 14 -16 10 -3
-3 10 -2 20 3 23 6 4 10 2 10 -4 0 -5 9 -20 19 -33 11 -12 34 -40 51 -60 18
-22 28 -42 24 -49 -4 -7 -3 -9 4 -5 13 8 35 -28 24 -39 -4 -3 -2 -6 3 -4 6 1
24 -3 40 -10 19 -8 39 -10 55 -4 l25 9 -2 968 -3 969 -22 24 c-36 39 -105 32
-214 -21z m-533 -419 c-8 -8 -14 -7 -23 2 -11 10 -9 11 6 5 15 -6 17 -4 11 6
-6 9 -4 11 4 5 9 -5 10 -10 2 -18z m-46 -27 c-3 -5 -11 -10 -16 -10 -6 0 -7 5
-4 10 3 6 11 10 16 10 6 0 7 -4 4 -10z m15 -26 c0 -8 -5 -12 -10 -9 -6 4 -8
11 -5 16 9 14 15 11 15 -7z m-33 -26 c-3 -8 -6 -5 -6 6 -1 11 2 17 5 13 3 -3
4 -12 1 -19z"/>
<path d="M2305 3290 c-3 -5 -19 -10 -34 -10 -15 0 -35 -8 -44 -18 -16 -17 -17
-100 -17 -983 0 -868 2 -967 16 -987 24 -35 57 -44 112 -30 43 11 153 73 160
90 2 5 11 8 19 8 9 0 13 6 10 14 -3 8 1 13 11 12 16 -1 17 31 20 380 l2 380
93 -3 c50 -1 102 -3 115 -3 l22 0 0 -250 c0 -244 0 -250 22 -270 12 -11 28
-18 36 -15 8 3 26 8 40 11 35 7 92 36 92 46 0 5 7 8 15 8 7 0 18 7 23 16 5 9
11 15 13 14 12 -4 38 14 32 23 -3 5 -2 7 3 4 6 -3 16 -2 24 3 12 7 12 11 -1
27 -13 16 -12 17 3 5 14 -11 18 -10 27 7 6 11 8 27 4 37 -4 12 -3 15 6 10 9
-6 11 102 9 476 l-3 484 -24 35 c-30 44 -164 139 -196 139 -36 0 -39 -17 -5
-36 16 -10 30 -22 30 -26 0 -4 6 -8 14 -8 7 0 34 -18 58 -40 52 -45 69 -93 67
-187 -1 -51 -2 -54 -9 -23 -5 23 -8 28 -9 13 0 -13 -5 -23 -10 -23 -5 0 -7 10
-3 22 3 13 1 19 -5 15 -7 -5 -9 0 -6 13 3 11 0 20 -6 20 -13 0 -51 36 -51 49
0 5 -15 15 -32 22 -18 7 -44 27 -58 43 -14 17 -35 41 -47 54 -12 13 -19 31
-17 40 4 12 1 11 -8 -3 -9 -15 -14 -84 -16 -257 l-4 -238 -47 0 c-25 0 -84 3
-130 7 l-84 6 6 356 c8 429 12 411 -106 484 -72 45 -119 58 -132 37z m5 -24
c0 -2 -7 -7 -16 -10 -8 -3 -12 -2 -9 4 6 10 25 14 25 6z m17 -19 c0 -7 -9 -13
-19 -13 -18 0 -18 1 -2 13 10 7 18 13 19 13 1 0 2 -6 2 -13z m113 -73 c0 -8
-5 -14 -11 -14 -5 0 -7 5 -4 10 4 6 1 19 -7 28 -12 15 -11 16 5 3 9 -7 17 -20
17 -27z m413 -375 c-7 -7 -12 -3 -15 16 -5 25 -4 25 10 11 12 -11 13 -19 5
-27z"/>
<path d="M1744 1570 c1 -14 6 -24 9 -22 11 4 11 6 -1 27 -11 19 -12 18 -8 -5z"/>
<path d="M207 1063 c-4 -3 -7 -38 -7 -77 0 -63 5 -80 39 -146 37 -70 42 -75
75 -78 32 -3 37 0 57 39 l21 43 15 -30 c26 -50 41 -61 73 -56 27 4 36 14 65
73 32 62 35 76 35 154 l0 85 -30 0 -30 0 0 -77 c-1 -64 -5 -85 -24 -116 l-24
-38 -21 34 c-17 28 -21 50 -21 116 l0 81 -35 0 -35 0 0 -75 c0 -56 -5 -86 -20
-115 -11 -22 -22 -40 -25 -40 -3 0 -14 18 -25 40 -15 29 -20 59 -20 115 l0 75
-28 0 c-16 0 -32 -3 -35 -7z"/>
<path d="M668 1058 c-3 -7 -20 -70 -37 -140 -17 -70 -34 -134 -37 -143 -5 -12
2 -15 29 -15 l35 0 29 117 c39 158 50 158 87 3 l29 -120 34 0 c31 0 33 2 26
28 -3 15 -21 83 -38 152 l-31 125 -61 3 c-43 2 -62 -1 -65 -10z"/>
<path d="M900 915 l0 -155 135 0 135 0 0 30 0 30 -100 0 -100 0 0 125 0 125
-35 0 -35 0 0 -155z"/>
<path d="M1200 915 l0 -155 135 0 135 0 0 30 0 30 -100 0 -100 0 0 30 0 30 70
0 70 0 0 30 0 30 -70 0 -70 0 0 30 0 30 100 0 100 0 0 35 0 35 -135 0 -135 0
0 -155z"/>
<path d="M1500 915 l0 -155 135 0 135 0 0 30 0 30 -100 0 -100 0 0 30 0 30 70
0 70 0 0 30 0 30 -70 0 -70 0 0 30 0 30 100 0 100 0 0 35 0 35 -135 0 -135 0
0 -155z"/>
<path d="M1800 915 l0 -155 123 0 c82 0 127 4 135 12 8 8 12 53 12 138 0 164
4 160 -153 160 l-117 0 0 -155z m210 -5 l0 -90 -70 0 -70 0 0 90 0 90 70 0 70
0 0 -90z"/>
<path d="M2220 916 c0 -138 2 -154 18 -158 43 -10 52 1 52 63 l0 59 70 0 70 0
0 -60 0 -60 30 0 30 0 0 155 0 155 -30 0 c-29 0 -29 -1 -32 -62 l-3 -63 -67
-3 -68 -3 0 66 0 65 -35 0 -35 0 0 -154z"/>
<path d="M2600 1066 c0 -2 -16 -67 -35 -145 -19 -77 -35 -145 -35 -151 0 -5
13 -10 30 -10 31 0 29 -5 60 120 26 106 32 120 44 120 10 0 23 -39 42 -120
l29 -120 34 0 c27 0 32 3 29 18 -3 9 -20 79 -39 155 l-33 137 -63 0 c-35 0
-63 -2 -63 -4z"/>
<path d="M2846 1048 c-10 -14 -16 -44 -16 -79 0 -79 13 -89 123 -89 l87 0 0
-30 0 -30 -105 0 -105 0 0 -30 0 -30 123 0 c82 0 127 4 135 12 16 16 16 140 0
156 -8 8 -45 12 -100 12 l-88 0 0 30 0 30 100 0 100 0 0 35 0 35 -119 0 c-113
0 -121 -1 -135 -22z"/>
<path d="M3137 1063 c-4 -3 -7 -73 -7 -155 l0 -148 35 0 35 0 0 60 0 60 70 0
70 0 0 -60 0 -60 35 0 35 0 0 155 0 155 -35 0 -35 0 0 -65 0 -65 -70 0 -70 0
0 65 c0 65 0 65 -28 65 -16 0 -32 -3 -35 -7z"/>
<path d="M3450 915 l0 -155 135 0 135 0 0 30 0 30 -105 0 -105 0 0 30 0 30 70
0 70 0 0 30 0 30 -70 0 -70 0 0 30 0 29 103 3 102 3 3 33 3 32 -135 0 -136 0
0 -155z"/>
<path d="M3750 915 l0 -155 35 0 35 0 0 102 0 101 31 -46 c43 -65 75 -65 118
1 l31 47 0 -102 0 -103 35 0 36 0 -3 153 -3 152 -37 3 c-35 3 -39 0 -78 -59
l-42 -61 -40 61 c-38 57 -43 61 -79 61 l-39 0 0 -155z"/>
<path d="M647 614 c-4 -4 -7 -52 -7 -106 0 -97 0 -99 23 -96 21 3 22 7 22 103
0 82 -3 100 -15 103 -9 1 -19 0 -23 -4z"/>
<path d="M733 613 c-9 -3 -13 -34 -13 -104 0 -99 0 -99 25 -99 24 0 25 2 25
68 l0 67 21 -32 c12 -18 29 -33 38 -33 9 0 26 15 36 33 l20 32 3 -67 c3 -60 5
-68 22 -68 19 0 20 7 20 105 l0 105 -25 0 c-14 0 -25 -3 -25 -7 0 -5 -13 -23
-28 -41 l-28 -34 -27 41 c-26 39 -37 45 -64 34z"/>
<path d="M977 614 c-4 -4 -7 -52 -7 -106 0 -91 1 -98 20 -98 17 0 20 7 20 40
l0 40 70 0 71 0 -3 63 -3 62 -80 3 c-45 1 -84 0 -88 -4z m133 -64 c0 -17 -7
-20 -50 -20 -43 0 -50 3 -50 20 0 17 7 20 50 20 43 0 50 -3 50 -20z"/>
<path d="M1190 515 l0 -105 90 0 91 0 -3 103 -3 102 -87 3 -88 3 0 -106z m140
-5 l0 -60 -50 0 -50 0 0 60 0 60 50 0 50 0 0 -60z"/>
<path d="M1423 614 c-9 -4 -13 -35 -13 -105 0 -92 1 -99 20 -99 17 0 20 7 20
40 0 51 16 51 54 0 23 -30 37 -40 58 -40 l29 0 -25 33 c-32 42 -32 47 -1 47
25 0 26 1 23 63 l-3 62 -75 2 c-41 1 -81 0 -87 -3z m120 -50 c16 -17 -8 -34
-49 -34 -37 0 -44 3 -44 20 0 17 7 20 43 20 24 0 46 -3 50 -6z"/>
<path d="M1637 614 c-4 -4 -7 -16 -7 -26 0 -14 8 -18 35 -18 l35 0 0 -80 c0
-73 2 -80 20 -80 18 0 20 7 20 80 l0 80 36 0 c31 0 35 3 32 23 -3 20 -9 22
-83 25 -45 1 -84 0 -88 -4z"/>
<path d="M2137 614 c-4 -4 -7 -52 -7 -106 l0 -98 90 0 c83 0 90 1 90 20 0 18
-7 20 -71 20 -62 0 -70 2 -67 18 2 13 15 18 51 20 38 3 47 7 47 22 0 15 -9 19
-47 22 -36 2 -49 7 -51 21 -3 15 5 17 68 17 68 0 71 1 68 23 -3 20 -9 22 -83
25 -45 2 -84 0 -88 -4z"/>
<path d="M2357 613 c-14 -14 -6 -58 15 -80 l21 -23 -21 -23 c-29 -30 -30 -77
-2 -77 13 0 20 7 20 18 0 10 11 29 25 42 l25 23 25 -23 c14 -13 25 -32 25 -42
0 -11 7 -18 20 -18 28 0 27 47 -2 77 l-21 23 21 23 c29 31 30 87 2 87 -14 0
-20 -7 -20 -23 0 -13 -11 -34 -25 -47 -21 -20 -27 -21 -41 -9 -10 8 -23 29
-31 47 -13 31 -23 39 -36 25z"/>
<path d="M2576 613 c-3 -4 -6 -51 -6 -105 0 -91 1 -98 20 -98 17 0 20 7 20 40
l0 40 70 0 71 0 -3 63 -3 62 -81 2 c-45 1 -85 -1 -88 -4z m134 -63 c0 -17 -7
-20 -50 -20 -43 0 -50 3 -50 20 0 17 7 20 50 20 43 0 50 -3 50 -20z"/>
<path d="M2797 614 c-4 -4 -7 -52 -7 -106 l0 -98 90 0 91 0 -3 103 -3 102 -80
3 c-45 1 -84 0 -88 -4z m133 -104 l0 -60 -50 0 -50 0 0 60 0 60 50 0 50 0 0
-60z"/>
<path d="M3010 513 c0 -96 1 -103 20 -103 17 0 20 7 20 40 0 27 4 40 14 40 7
0 26 -18 41 -40 22 -31 34 -40 57 -40 l29 0 -31 38 -31 37 31 3 31 3 -3 62 -3
62 -87 1 -88 1 0 -104z m130 37 c0 -17 -7 -20 -45 -20 -38 0 -45 3 -45 20 0
17 7 20 45 20 38 0 45 -3 45 -20z"/>
<path d="M3237 613 c-4 -3 -7 -15 -7 -25 0 -14 8 -18 35 -18 l35 0 0 -80 c0
-73 2 -80 20 -80 18 0 20 7 20 80 l0 80 35 0 c31 0 35 3 35 25 0 25 -1 25 -83
25 -46 0 -87 -3 -90 -7z"/>
<path d="M1850 495 l0 -85 69 0 68 0 6 48 c6 55 -11 85 -37 63 -18 -15 -68
-11 -74 7 -2 8 10 12 42 12 39 0 46 3 46 20 0 18 -7 20 -60 20 l-60 0 0 -85z
m100 -35 c0 -15 -7 -20 -29 -20 -31 0 -47 13 -36 30 3 6 19 10 36 10 22 0 29
-5 29 -20z"/>
</g>
</svg>
