<?xml version="1.0" standalone="no"?>
<!DOCTYPE svg PUBLIC "-//W3C//DTD SVG 20010904//EN"
 "http://www.w3.org/TR/2001/REC-SVG-20010904/DTD/svg10.dtd">
<svg version="1.0" xmlns="http://www.w3.org/2000/svg"
 width="493.000000pt" height="439.000000pt" viewBox="0 0 493.000000 439.000000"
 preserveAspectRatio="xMidYMid meet">

<g transform="translate(0.000000,439.000000) scale(0.100000,-0.100000)"
fill="#003070" stroke="none">
<path d="M2332 4015 c-349 -91 -1565 -456 -1634 -491 -64 -32 -164 -131 -201
-198 -36 -65 -75 -191 -83 -268 -8 -84 12 -355 37 -498 14 -78 17 -116 10
-118 -6 -2 -20 -11 -31 -20 -37 -30 -34 -81 15 -317 25 -121 59 -285 76 -365
16 -80 32 -153 35 -163 11 -34 65 -87 89 -87 56 0 71 -15 84 -81 37 -188 151
-360 306 -463 28 -19 331 -194 674 -391 554 -317 632 -358 695 -372 81 -17
158 -12 239 16 44 15 370 186 602 316 856 478 895 506 990 697 32 65 51 120
62 181 8 48 19 88 24 88 5 1 14 3 19 4 6 1 19 3 29 4 25 1 78 46 95 80 8 15
31 119 51 231 20 113 45 250 55 305 47 249 47 270 -2 322 l-20 22 20 93 c46
211 54 498 18 633 -40 145 -123 269 -225 334 -26 17 -122 56 -212 85 -248 82
-1360 396 -1529 432 -93 20 -182 16 -288 -11z m413 -194 c79 -16 1144 -323
1453 -418 144 -44 200 -86 253 -189 55 -106 65 -182 50 -382 -11 -153 -41
-334 -62 -374 -9 -17 -87 -18 -1423 -18 l-1413 0 -7 31 c-11 55 -7 79 12 80
16 1 16 2 0 6 -35 9 -18 184 27 273 6 14 20 42 30 62 28 59 123 168 145 168
11 0 20 6 20 14 0 30 206 139 220 116 5 -9 9 -8 13 3 8 20 135 41 201 33 28
-4 66 -8 83 -10 97 -12 249 -76 239 -101 -3 -9 0 -12 9 -9 29 11 155 -134 155
-179 0 -10 4 -17 10 -17 31 0 77 -283 49 -301 -10 -6 -11 -9 -1 -9 9 0 11 -15
6 -64 l-7 -64 113 -7 c80 -5 115 -4 123 4 21 21 14 224 -11 325 -35 142 -99
254 -207 362 -78 79 -104 98 -185 137 -128 61 -181 72 -330 71 -357 -4 -624
-188 -730 -504 -30 -89 -38 -252 -16 -343 9 -38 16 -70 16 -73 0 -8 -989 -4
-994 5 -23 36 -65 339 -66 466 -1 228 119 412 325 498 163 68 528 173 1140
328 l430 109 120 -5 c66 -2 161 -13 210 -24z m151 -1473 c4 -6 2 -14 -4 -16
-7 -2 -12 -21 -12 -43 l0 -39 -45 0 c-44 0 -60 12 -31 23 11 5 13 13 6 35 -5
20 -4 34 3 41 15 15 74 14 83 -1z m1364 2 c12 -8 12 -10 -3 -16 -14 -5 -18
-15 -15 -43 l3 -36 -47 -3 c-29 -2 -48 1 -48 7 0 6 7 11 15 11 13 0 15 7 9 34
-3 19 -3 39 1 45 8 13 65 14 85 1z m-3288 -137 c40 -36 5 -118 -41 -93 -35 18
-25 110 13 110 5 0 18 -7 28 -17z m1968 -15 c8 -21 75 -369 82 -428 3 -23 0
-25 -42 -25 -52 0 -44 -22 -95 244 -19 101 -38 187 -41 192 -3 5 -16 9 -30 9
-15 0 -24 6 -24 15 0 12 14 15 70 15 64 0 71 -2 80 -22z m1358 9 c6 -7 23 -77
37 -156 14 -79 32 -175 40 -213 22 -102 22 -100 -32 -96 l-47 3 -22 115 c-13
63 -31 158 -40 210 -19 106 -26 120 -60 120 -15 0 -24 6 -24 15 0 20 132 22
148 2z m-1090 -99 c8 -32 10 -33 74 -40 110 -11 143 -37 173 -142 16 -53 18
-56 49 -56 l33 0 -5 68 c-4 62 -2 71 20 97 23 26 31 29 111 33 84 4 86 4 92
-19 8 -35 35 -170 35 -175 0 -2 65 -4 145 -4 155 0 161 2 129 48 -14 20 -24
22 -104 22 -57 0 -91 4 -96 12 -10 16 -33 127 -34 161 0 39 18 33 26 -8 l6
-35 77 0 c143 0 195 -32 225 -138 23 -83 21 -125 -8 -159 l-24 -28 -424 -5
-423 -5 3 -39 c2 -27 -1 -37 -9 -34 -15 5 -53 173 -45 194 4 10 24 14 71 14
70 0 78 7 49 48 -13 18 -25 22 -74 22 -33 0 -62 5 -66 11 -8 13 -34 145 -34
172 0 29 19 19 28 -15z m-2129 -88 c6 -28 11 -56 11 -63 0 -7 5 -29 11 -49 9
-36 12 -38 49 -38 48 0 47 -6 15 137 -3 15 -14 23 -33 25 -16 2 -27 9 -27 18
0 12 14 15 70 15 l70 0 12 -40 c7 -22 17 -66 23 -97 l11 -58 40 0 c21 0 39 2
39 5 0 4 -15 82 -25 132 -4 15 -14 23 -33 25 -16 2 -27 9 -27 18 0 11 14 16
60 18 33 1 66 -2 73 -7 8 -4 20 -39 28 -77 25 -123 20 -114 65 -114 38 0 41 2
36 23 -3 12 -10 48 -17 79 -10 51 -14 57 -38 60 -16 2 -28 10 -30 21 -3 15 5
17 62 17 41 0 69 -5 78 -14 18 -18 52 -209 43 -244 -3 -15 -16 -37 -27 -49
l-21 -23 -448 0 -448 0 -7 38 c-27 154 -28 155 -63 164 -53 14 -32 33 41 36
74 3 83 -3 96 -64 7 -36 11 -39 45 -42 l36 -3 -2 70 c-2 61 1 73 22 95 27 29
42 33 133 35 l66 1 11 -50z m827 -15 c7 -33 15 -77 18 -97 l7 -38 65 0 c57 0
65 2 60 18 -2 9 -7 40 -11 67 -8 63 -13 72 -45 76 -14 2 -26 12 -28 22 -3 15
5 17 62 17 43 0 69 -5 79 -14 15 -15 47 -170 47 -226 0 -22 -9 -41 -29 -61
-27 -27 -35 -29 -100 -29 l-71 0 0 -40 c0 -50 -24 -76 -85 -91 -25 -6 -55 -22
-68 -35 -30 -32 -37 -30 -37 9 0 42 24 75 67 93 26 12 34 20 31 37 -3 20 -9
22 -76 25 -84 3 -82 0 -107 126 -18 94 -19 117 -3 152 18 38 61 54 143 51 l70
-2 11 -60z m653 28 c8 -32 31 -149 31 -160 0 -2 29 -3 65 -3 63 0 65 1 61 23
-3 12 -10 48 -16 79 -10 51 -14 57 -38 60 -16 2 -28 10 -30 21 -3 15 5 17 62
17 80 0 87 -8 111 -132 31 -154 4 -198 -116 -198 l-69 0 0 -40 c0 -51 -22 -73
-94 -94 -32 -10 -62 -25 -69 -36 -18 -29 -27 -24 -27 14 0 40 28 79 70 96 23
9 30 18 28 34 -3 19 -11 21 -75 24 -40 2 -75 8 -81 15 -10 14 -42 172 -42 211
0 73 46 105 152 106 l67 0 10 -37z m-502 -356 l17 -23 21 24 c18 21 24 23 43
13 17 -9 22 -21 22 -50 0 -22 -6 -44 -15 -51 -19 -16 -52 -4 -61 22 -6 21 -7
21 -21 -5 -25 -48 -73 -25 -73 34 0 22 26 59 41 59 4 0 16 -10 26 -23z m684
13 c22 -12 27 -78 7 -98 -43 -43 -93 44 -51 90 19 21 19 21 44 8z m1457 -222
c4 -23 -52 -161 -87 -212 -48 -69 -99 -108 -292 -223 -203 -121 -1011 -583
-1124 -643 -124 -66 -240 -62 -373 11 -187 104 -358 201 -787 447 -264 152
-499 286 -522 299 -52 30 -105 88 -137 151 -26 51 -60 168 -52 180 2 4 762 7
1688 7 1562 0 1683 -2 1686 -17z"/>
<path d="M2522 3758 c-14 -14 -16 -68 -2 -68 6 0 10 -5 10 -11 0 -5 -4 -7 -10
-4 -6 4 -10 -8 -10 -29 0 -30 -6 -40 -45 -68 -37 -27 -45 -38 -42 -60 2 -15
-1 -26 -6 -25 -5 1 -12 -5 -16 -13 -5 -8 -13 -24 -18 -36 -10 -19 -5 -22 74
-43 371 -103 623 -424 623 -797 0 -41 3 -74 8 -74 15 1 51 37 68 70 14 28 18
55 16 135 -1 62 4 122 13 158 20 78 19 87 -10 127 -30 41 -31 59 -5 93 11 14
20 33 20 44 0 12 -11 2 -30 -27 -21 -31 -30 -57 -30 -85 0 -49 -14 -65 -55
-65 -85 0 -93 69 -26 205 55 110 64 177 32 227 l-21 33 0 -35 c0 -42 -15 -60
-47 -60 -29 0 -43 28 -43 87 0 28 -6 58 -15 69 -14 18 -14 18 -15 -5 0 -13 -5
-41 -11 -61 -11 -35 -9 -44 20 -102 36 -75 37 -80 13 -101 -29 -27 -77 -22
-102 10 -19 25 -21 38 -18 137 l2 109 -43 38 c-28 26 -66 46 -109 59 -87 27
-127 53 -142 93 -6 17 -16 40 -22 51 -6 12 -6 16 1 11 6 -3 11 1 11 9 0 19 -2
20 -18 4z"/>
<path d="M1892 3454 c-53 -14 -90 -33 -128 -66 -11 -10 -50 -34 -85 -53 -80
-44 -33 -36 66 12 76 36 132 42 178 18 25 -13 29 -13 44 5 13 15 19 16 25 7 6
-9 10 -9 16 0 4 6 14 11 22 10 39 -3 102 17 115 37 23 31 19 50 -7 41 -13 -3
-27 -6 -33 -6 -5 0 -44 2 -85 4 -44 3 -96 -1 -128 -9z"/>
<path d="M2169 2721 c-16 -16 -29 -36 -29 -45 0 -60 56 -102 122 -91 22 4 69
1 104 -5 100 -19 105 9 12 63 -27 15 -55 41 -63 57 -30 59 -98 68 -146 21z"/>
<path d="M3634 1926 c-11 -29 1 -51 30 -54 27 -3 28 -2 21 25 -10 40 -40 57
-51 29z"/>
<path d="M952 1908 c2 -28 8 -34 31 -36 26 -3 27 -1 21 25 -9 39 -13 43 -35
43 -17 0 -20 -6 -17 -32z"/>
<path d="M1778 1935 c-2 -3 -3 -18 0 -35 4 -25 9 -30 33 -30 27 0 29 2 23 28
-4 15 -9 30 -11 35 -5 8 -37 10 -45 2z"/>
<path d="M2437 1933 c-3 -4 -3 -20 0 -36 4 -22 11 -27 33 -27 26 0 27 2 21 33
-5 22 -13 33 -28 35 -12 2 -23 -1 -26 -5z"/>
<path d="M1487 1373 c-4 -3 -7 -66 -7 -140 0 -112 2 -133 15 -133 13 0 15 22
15 140 0 128 -4 152 -23 133z"/>
<path d="M1687 1374 c-10 -10 -8 -246 2 -262 6 -10 48 -12 192 -8 223 5 219 5
269 5 22 0 48 0 58 0 9 1 38 -2 65 -5 l47 -6 0 114 c0 72 4 118 11 125 16 16
3 43 -21 43 -19 0 -20 -6 -20 -114 0 -70 -4 -117 -11 -121 -5 -4 -21 -4 -35
-1 -23 6 -24 10 -24 86 0 73 -2 80 -20 80 -18 0 -20 -7 -20 -80 0 -65 -3 -82
-16 -87 -32 -12 -49 11 -52 71 -3 48 -6 57 -20 54 -13 -2 -18 -16 -20 -53 -4
-57 -15 -75 -48 -75 -23 0 -24 3 -24 65 0 50 -3 65 -15 65 -10 0 -15 -16 -17
-62 l-3 -63 -57 -3 -58 -3 0 76 c0 60 -3 75 -15 75 -12 0 -15 -13 -15 -59 0
-84 -4 -91 -56 -91 l-43 0 -3 117 c-3 108 -11 137 -31 117z"/>
<path d="M2395 1368 c-3 -8 -4 -70 -3 -139 3 -102 6 -124 18 -124 13 0 15 22
15 134 0 99 -3 135 -12 138 -7 3 -15 -2 -18 -9z"/>
<path d="M2830 1241 l0 -141 140 0 140 0 0 113 c0 71 4 117 11 124 16 16 3 43
-21 43 -19 0 -20 -6 -20 -107 0 -60 -4 -114 -9 -121 -5 -8 -22 -12 -42 -10
l-34 3 -3 73 c-2 54 -6 72 -17 72 -11 0 -15 -18 -17 -72 l-3 -73 -45 0 -45 0
-5 114 c-3 79 -9 116 -17 119 -10 3 -13 -29 -13 -137z"/>
<path d="M3185 1368 c-3 -8 -4 -70 -3 -139 l3 -124 62 -3 c38 -2 66 -8 73 -17
16 -19 61 -19 86 0 15 11 56 14 196 15 l177 0 4 113 c2 61 8 125 12 140 7 26
6 28 -16 25 -24 -3 -24 -5 -27 -121 l-3 -118 -27 3 c-24 3 -28 8 -33 52 -7 60
-26 76 -94 76 -29 0 -54 3 -58 6 -3 3 3 25 13 49 18 41 17 55 -2 55 -16 0 -60
-108 -53 -129 5 -17 17 -21 78 -23 67 -3 72 -5 81 -29 18 -52 6 -59 -104 -59
-94 0 -100 1 -100 20 0 36 -28 90 -54 101 -13 6 -36 9 -51 5 -30 -8 -65 -60
-65 -98 0 -24 -4 -28 -30 -28 l-29 0 -3 117 c-2 82 -7 118 -15 121 -7 2 -15
-3 -18 -10z m210 -154 c10 -11 15 -29 13 -53 -2 -29 -8 -37 -31 -45 -35 -13
-60 10 -60 53 0 55 43 80 78 45z"/>
<path d="M1270 1331 c0 -12 6 -21 16 -21 9 0 14 7 12 17 -5 25 -28 28 -28 4z"/>
<path d="M1330 1330 c0 -11 7 -20 15 -20 8 0 15 9 15 20 0 11 -7 20 -15 20 -8
0 -15 -9 -15 -20z"/>
<path d="M2615 1341 c-8 -15 3 -31 21 -31 9 0 14 7 12 17 -4 20 -24 28 -33 14z"/>
<path d="M2680 1330 c0 -11 7 -20 15 -20 8 0 15 9 15 20 0 11 -7 20 -15 20 -8
0 -15 -9 -15 -20z"/>
<path d="M1387 1284 c-4 -4 -7 -38 -7 -76 l0 -68 -48 0 c-68 0 -92 20 -92 76
0 32 -4 44 -15 44 -12 0 -15 -13 -15 -55 0 -46 4 -60 25 -81 23 -23 31 -25
102 -22 l78 3 0 89 c0 83 -8 109 -28 90z"/>
<path d="M1590 1184 c0 -97 -2 -106 -20 -111 -21 -6 -27 -37 -10 -48 6 -4 22
1 35 9 24 16 25 20 25 136 0 100 -3 120 -15 120 -12 0 -15 -18 -15 -106z"/>
<path d="M2730 1216 l0 -76 -53 0 c-66 0 -87 19 -87 78 0 31 -4 42 -15 42 -12
0 -15 -13 -15 -55 0 -46 4 -60 25 -81 23 -23 31 -25 102 -22 l78 3 0 90 c0 77
-2 90 -17 93 -16 3 -18 -6 -18 -72z"/>
<path d="M1784 1059 c-10 -17 13 -36 27 -22 12 12 4 33 -11 33 -5 0 -12 -5
-16 -11z"/>
<path d="M1846 1055 c-3 -9 1 -18 10 -22 19 -7 28 2 21 22 -8 19 -23 19 -31 0z"/>
<path d="M2930 1051 c0 -12 6 -21 16 -21 9 0 14 7 12 17 -5 25 -28 28 -28 4z"/>
<path d="M2997 1063 c-13 -12 -7 -33 8 -33 8 0 15 9 15 20 0 20 -11 26 -23 13z"/>
<path d="M1943 900 c-33 -14 -44 -44 -41 -113 l3 -62 613 -3 612 -2 0 69 c0
53 -4 74 -19 92 l-19 24 -564 2 c-312 1 -573 -2 -585 -7z m65 -37 c3 -23 -12
-31 -23 -13 -11 17 -25 0 -25 -30 0 -31 18 -50 29 -31 4 6 14 9 22 6 11 -4 18
7 27 40 6 25 16 45 22 45 10 0 45 -108 37 -116 -3 -3 -15 1 -26 8 -15 9 -24
10 -29 2 -10 -15 -59 -26 -83 -19 -16 5 -19 16 -19 65 0 60 7 71 45 67 12 -1
21 -11 23 -24z m167 -40 c0 -65 -8 -76 -31 -45 -12 16 -13 16 -14 0 0 -9 -4
-20 -10 -23 -6 -4 -10 20 -10 65 l0 71 33 -3 32 -3 0 -62z m203 39 c3 -20 0
-22 -22 -16 -24 6 -26 4 -26 -30 0 -25 4 -36 15 -36 8 0 15 7 15 16 0 8 5 12
10 9 13 -8 13 -42 -1 -50 -5 -4 -21 -4 -35 -1 -22 6 -24 11 -24 65 0 66 4 73
40 69 17 -2 26 -10 28 -26z m80 2 c3 -18 -1 -21 -22 -17 -23 5 -26 2 -26 -25
0 -38 18 -51 37 -26 13 18 14 17 11 -11 -3 -33 -29 -45 -53 -25 -18 15 -20
101 -3 118 19 19 53 10 56 -14z m82 12 c0 -7 -10 -17 -22 -20 -21 -6 -21 -7
-5 -17 21 -12 22 -29 2 -29 -22 0 -18 -21 5 -27 32 -8 25 -35 -7 -31 -26 3
-28 6 -31 57 -2 29 -1 60 2 67 7 18 56 18 56 0z m78 2 c19 -19 14 -29 -13 -24
-14 3 -25 1 -25 -4 0 -4 11 -11 25 -14 21 -5 25 -12 25 -41 0 -28 -4 -36 -24
-41 -29 -7 -46 1 -46 22 0 10 7 13 25 8 14 -3 25 -2 25 4 0 5 -11 13 -25 16
-20 5 -25 13 -25 40 0 18 3 36 7 39 10 11 38 8 51 -5z m90 -12 c3 -15 0 -18
-17 -13 -12 3 -23 1 -26 -3 -3 -5 5 -10 17 -12 20 -3 23 -9 23 -43 0 -38 -2
-40 -30 -40 -21 0 -31 5 -33 18 -3 15 1 17 22 11 15 -3 26 -2 26 4 0 5 -11 13
-25 16 -20 5 -25 13 -25 40 0 40 7 48 40 44 15 -2 26 -10 28 -22z m92 5 c5
-11 10 -34 10 -51 0 -17 -5 -40 -10 -51 -12 -21 -50 -25 -68 -7 -16 16 -16
100 0 116 18 18 56 14 68 -7z m85 -48 c1 -66 -13 -82 -33 -40 l-11 22 0 -22
c-1 -13 -5 -23 -11 -23 -11 0 -14 113 -3 124 4 4 19 6 33 4 24 -3 25 -6 25
-65z m122 50 c3 -7 -7 -15 -22 -19 -24 -6 -24 -7 -8 -19 17 -13 17 -14 1 -20
-28 -11 -22 -35 8 -35 16 0 24 -5 22 -12 -3 -7 -18 -13 -34 -13 -28 0 -29 2
-32 54 -2 29 -1 60 2 68 7 17 58 14 63 -4z m81 -5 c3 -14 -4 -18 -25 -19 -28
-1 -28 -1 -3 -8 21 -6 25 -13 25 -46 0 -38 -2 -40 -30 -40 -21 0 -31 5 -33 18
-3 15 1 17 22 11 15 -3 26 -2 26 4 0 5 -11 13 -25 16 -20 5 -25 13 -25 40 0
18 3 36 7 40 13 13 58 1 61 -16z m-808 -14 c6 -14 13 -44 16 -67 5 -40 4 -41
-11 -22 -13 17 -18 18 -36 7 -12 -8 -23 -12 -25 -10 -7 7 29 118 38 118 5 0
13 -12 18 -26z m640 -34 c0 -33 -4 -60 -10 -60 -6 0 -10 27 -10 60 0 33 4 60
10 60 6 0 10 -27 10 -60z"/>
<path d="M2136 853 c-11 -11 -6 -23 9 -23 8 0 15 4 15 9 0 13 -16 22 -24 14z"/>
<path d="M2757 853 c-4 -3 -7 -21 -7 -40 0 -23 5 -33 15 -33 11 0 15 11 15 40
0 38 -8 49 -23 33z"/>
<path d="M2846 853 c-11 -11 -6 -23 9 -23 8 0 15 4 15 9 0 13 -16 22 -24 14z"/>
</g>
</svg>
